{
.appVersion = "3260";
.formatVersion = 3;
DisplayStrings = (
a,
"ABCDEFGHIJKLMNOPQRSTUVWXYZabcdefghijklmnopqrstuvwxyz1234567890.,-"
);
axes = (
{
name = Weight;
tag = wght;
}
);
customParameters = (
{
name = panose;
value = (
0,
0,
0,
0,
0,
0,
0,
0,
0,
0
);
},
{
name = unicodeRanges;
value = (
0,
1
);
},
{
name = glyphOrder;
value = (
.notdef,
space,
A,
B,
C,
D,
E,
F,
G,
H,
I,
J,
K,
L,
M,
N,
O,
P,
Q,
R,
S,
T,
U,
V,
W,
X,
Y,
Z,
a,
b,
c,
d,
e,
f,
g,
h,
i,
j,
k,
l,
m,
n,
o,
p,
q,
r,
s,
t,
u,
v,
w,
x,
y,
z,
one,
two,
three,
four,
five,
six,
seven,
eight,
nine,
zero,
period,
comma,
hyphen
);
}
);
date = "2024-05-03 06:12:04 +0000";
familyName = Willow;
fontMaster = (
{
axesValues = (
700
);
customParameters = (
{
name = typoAscender;
value = 800;
},
{
name = typoDescender;
value = -200;
},
{
name = typoLineGap;
value = 200;
},
{
name = winAscent;
value = 1000;
},
{
name = winDescent;
value = 577;
},
{
name = hheaAscender;
value = 1000;
},
{
name = hheaDescender;
value = -200;
},
{
name = strikeoutPosition;
value = 250;
},
{
name = strikeoutSize;
value = 50;
}
);
id = m01;
metricValues = (
{
pos = 800;
},
{
pos = 700;
},
{
pos = 500;
},
{
},
{
pos = -200;
},
{
}
);
name = Regular;
},
{
axesValues = (
200
);
customParameters = (
{
name = typoAscender;
value = 800;
},
{
name = typoDescender;
value = -200;
},
{
name = typoLineGap;
value = 200;
},
{
name = winAscent;
value = 1000;
},
{
name = winDescent;
value = 577;
},
{
name = hheaAscender;
value = 1000;
},
{
name = hheaDescender;
value = -200;
},
{
name = strikeoutPosition;
value = 250;
},
{
name = strikeoutSize;
value = 50;
}
);
id = "0F07E72C-8AE6-425A-A663-A4AAA3128035";
metricValues = (
{
pos = 800;
},
{
pos = 700;
},
{
pos = 500;
},
{
},
{
pos = -200;
},
{
}
);
name = Thin;
}
);
glyphs = (
{
glyphname = W;
layers = (
{
layerId = m01;
shapes = (
{
closed = 1;
nodes = (
(13,614,o),
(29,609,o),
(37,603,qs),
(47,597,o),
(65,593,o),
(100,602,o),
(129,617,qs),
(220,667,ls),
(269,694,o),
(286,701,qs),
(311,712,o),
(332,709,o),
(350,697,qs),
(394,666,o),
(388,647,qs),
(378,611,o),
(281,462,o),
(158,346,qs),
(129,318,o),
(64,180,o),
(45,55,o),
(73,40,qs),
(109,20,o),
(247,76,o),
(380,191,o),
(409,249,qs),
(451,330,o),
(444,394,o),
(409,389,qs),
(378,385,o),
(284,326,o),
(266,300,qs),
(255,283,o),
(265,186,o),
(335,85,o),
(408,57,qs),
(483,29,o),
(629,149,o),
(732,342,o),
(743,409,qs),
(758,499,o),
(754,607,o),
(733,614,qs),
(720,618,o),
(684,571,o),
(664,505,o),
(671,485,qs),
(691,424,o),
(747,361,o),
(779,377,qs),
(798,387,o),
(839,419,o),
(848,428,q),
(852,430,o),
(823,397,qs),
(787,357,o),
(738,322,o),
(680,334,o),
(646,377,qs),
(596,441,o),
(589,579,o),
(646,671,qs),
(749,837,o),
(845,677,o),
(767,255,o),
(654,89,qs),
(617,37,o),
(527,-14,o),
(469,-14,qs),
(445,-14,o),
(405,-1,o),
(380,12,qs),
(364,20,o),
(356,23,qs),
(313,43,o),
(230,140,o),
(195,249,o),
(215,285,qs),
(243,334,o),
(334,385,o),
(415,406,qs),
(468,419,o),
(510,404,o),
(506,357,o),
(487,315,qs),
(471,281,o),
(374,153,o),
(232,32,o),
(153,12,qs),
(60,-12,o),
(-60,36,o),
(-55,205,o),
(34,351,qs),
(47,372,o),
(119,420,o),
(179,453,qs),
(250,492,o),
(266,507,qs),
(298,536,o),
(340,617,o),
(342,648,qs),
(347,701,o),
(284,655,qs),
(248,628,o),
(145,565,o),
(116,552,qs),
(80,537,o),
(-7,538,o),
(-25,576,qs),
(-31,589,o),
(-14,608,o),
(0,611,qs)
);
}
);
width = 786;
},
{
layerId = "0F07E72C-8AE6-425A-A663-A4AAA3128035";
shapes = (
{
closed = 1;
nodes = (
(13,614,o),
(29,609,o),
(37,603,qs),
(47,597,o),
(65,593,o),
(100,602,o),
(129,617,qs),
(220,667,ls),
(269,694,o),
(286,701,qs),
(311,712,o),
(332,709,o),
(350,697,qs),
(394,666,o),
(388,647,qs),
(378,611,o),
(281,462,o),
(158,346,qs),
(129,318,o),
(64,180,o),
(45,55,o),
(73,40,qs),
(109,20,o),
(247,76,o),
(380,191,o),
(409,249,qs),
(451,330,o),
(444,394,o),
(409,389,qs),
(378,385,o),
(284,326,o),
(266,300,qs),
(255,283,o),
(265,186,o),
(335,85,o),
(408,57,qs),
(483,29,o),
(629,149,o),
(732,342,o),
(743,409,qs),
(758,499,o),
(754,607,o),
(733,614,qs),
(720,618,o),
(684,571,o),
(664,505,o),
(671,485,qs),
(691,424,o),
(747,361,o),
(779,377,qs),
(798,387,o),
(839,419,o),
(848,428,q),
(852,430,o),
(823,397,qs),
(787,357,o),
(738,322,o),
(680,334,o),
(646,377,qs),
(596,441,o),
(589,579,o),
(646,671,qs),
(749,837,o),
(845,677,o),
(767,255,o),
(654,89,qs),
(617,37,o),
(527,-14,o),
(469,-14,qs),
(445,-14,o),
(405,-1,o),
(380,12,qs),
(364,20,o),
(356,23,qs),
(313,43,o),
(230,140,o),
(195,249,o),
(215,285,qs),
(243,334,o),
(334,385,o),
(415,406,qs),
(468,419,o),
(510,404,o),
(506,357,o),
(487,315,qs),
(471,281,o),
(374,153,o),
(232,32,o),
(153,12,qs),
(60,-12,o),
(-60,36,o),
(-55,205,o),
(34,351,qs),
(47,372,o),
(119,420,o),
(179,453,qs),
(250,492,o),
(266,507,qs),
(298,536,o),
(340,617,o),
(342,648,qs),
(347,701,o),
(284,655,qs),
(248,628,o),
(145,565,o),
(116,552,qs),
(80,537,o),
(-7,538,o),
(-25,576,qs),
(-31,589,o),
(-14,608,o),
(0,611,qs)
);
}
);
width = 786;
}
);
note = W;
unicode = 87;
},
{
glyphname = a;
layers = (
{
layerId = m01;
shapes = (
{
closed = 1;
nodes = (
(466,446,o),
(426,484,o),
(359,504,o),
(324,500,qs),
(251,493,o),
(149,442,o),
(109,398,qs),
(60,343,o),
(23,206,o),
(34,156,qs),
(42,119,o),
(79,61,o),
(110,34,qs),
(139,8,o),
(229,-4,o),
(283,10,qs),
(316,19,o),
(374,56,o),
(393,77,qs),
(408,92,o),
(434,146,o),
(453,193,qs),
(470,234,ls),
(476,247,o),
(478,240,o),
(476,221,qs),
(472,178,o),
(476,93,o),
(491,55,qs),
(496,41,o),
(508,21,o),
(513,14,q),
(520,7,o),
(521,2,qs),
(523,-5,o),
(539,98,o),
(546,156,qs),
(557,238,ls),
(560,256,o),
(548,320,o),
(534,343,qs),
(526,355,o),
(499,367,o),
(473,364,o),
(467,355,qs),
(456,336,o),
(441,282,o),
(432,238,qs),
(418,177,o),
(397,114,o),
(379,95,qs),
(345,61,o),
(292,38,o),
(238,36,qs),
(207,35,o),
(147,79,o),
(131,104,qs),
(99,153,o),
(120,293,o),
(171,358,qs),
(212,413,o),
(324,454,o),
(419,450,o),
(425,442,qs),
(433,430,o),
(403,411,o),
(352,396,o),
(313,387,qs),
(275,378,o),
(260,373,qs),
(234,363,o),
(200,339,o),
(185,316,o),
(187,307,qs),
(191,286,o),
(210,266,o),
(226,259,qs),
(238,253,o),
(242,249,q),
(240,257,ls),
(236,276,o),
(242,300,o),
(266,301,qs),
(317,305,o),
(407,342,o),
(463,397,o),
(465,426,qs)
);
}
);
width = 588;
},
{
layerId = "0F07E72C-8AE6-425A-A663-A4AAA3128035";
shapes = (
{
closed = 1;
nodes = (
(466,446,o),
(426,484,o),
(359,504,o),
(324,500,qs),
(251,493,o),
(149,442,o),
(109,398,qs),
(60,343,o),
(23,206,o),
(34,156,qs),
(42,119,o),
(79,61,o),
(110,34,qs),
(139,8,o),
(229,-4,o),
(283,10,qs),
(316,19,o),
(374,56,o),
(393,77,qs),
(408,92,o),
(453,169,o),
(477,216,qs),
(498,261,ls),
(504,275,o),
(514,277,o),
(519,268,qs),
(526,254,o),
(534,181,o),
(534,135,qs),
(534,124,o),
(529,86,o),
(527,67,qs),
(518,12,o),
(521,2,qs),
(524,-5,o),
(539,97,o),
(546,155,qs),
(557,238,ls),
(560,256,o),
(548,320,o),
(534,343,qs),
(526,355,o),
(499,367,o),
(473,364,o),
(467,355,qs),
(455,334,o),
(440,272,o),
(431,219,qs),
(421,160,o),
(403,92,o),
(388,76,qs),
(358,44,o),
(278,20,o),
(233,18,qs),
(168,15,o),
(86,61,o),
(63,98,qs),
(34,143,o),
(85,294,o),
(141,368,qs),
(181,420,o),
(305,476,o),
(416,471,o),
(434,442,qs),
(444,427,o),
(437,379,o),
(400,340,o),
(367,335,qs),
(324,328,o),
(263,349,qs),
(216,365,o),
(177,349,o),
(178,311,o),
(187,301,qs),
(205,281,o),
(225,262,o),
(231,257,q),
(237,254,o),
(242,249,q),
(240,257,ls),
(236,276,o),
(242,300,o),
(266,301,qs),
(317,305,o),
(407,342,o),
(463,397,o),
(465,426,qs)
);
}
);
width = 600;
}
);
note = a;
unicode = 97;
},
{
glyphname = b;
layers = (
{
layerId = m01;
shapes = (
{
closed = 1;
nodes = (
(40,720,l),
(43,721,o),
(48,721,o),
(51,721,qs),
(70,721,o),
(133,749,o),
(205,800,q),
(292,796,ls),
(300,796,o),
(319,771,o),
(318,758,qs),
(314,723,o),
(232,486,o),
(138,245,o),
(120,214,qs),
(96,171,o),
(55,170,o),
(37,231,o),
(45,270,qs),
(49,292,o),
(69,324,o),
(90,347,qs),
(115,377,ls),
(148,418,o),
(172,438,qs),
(228,483,o),
(356,515,o),
(414,484,qs),
(477,452,o),
(526,319,o),
(498,160,o),
(450,90,qs),
(424,52,o),
(288,6,o),
(215,-1,qs),
(187,-3,o),
(149,7,o),
(129,16,qs),
(120,20,ls),
(95,29,o),
(71,53,o),
(65,71,qs),
(62,83,o),
(72,105,o),
(86,122,qs),
(101,140,o),
(140,149,o),
(170,147,qs),
(234,142,o),
(299,129,o),
(386,84,o),
(447,34,qs),
(465,20,o),
(440,-8,o),
(387,-24,o),
(371,-22,qs),
(361,-21,o),
(361,-17,o),
(366,-13,qs),
(374,-6,o),
(382,6,o),
(377,14,qs),
(370,27,o),
(283,72,o),
(187,100,o),
(162,93,qs),
(143,87,o),
(131,79,o),
(135,74,o),
(141,71,qs),
(159,63,o),
(280,61,o),
(404,133,o),
(425,228,qs),
(447,327,o),
(401,435,o),
(301,452,o),
(248,421,qs),
(200,393,o),
(120,317,o),
(71,251,o),
(70,243,qs),
(68,234,o),
(169,465,o),
(256,697,o),
(261,745,qs),
(261,747,o),
(249,740,o),
(241,733,q),
(205,709,o),
(156,683,o),
(135,685,q)
);
}
);
width = 547;
},
{
layerId = "0F07E72C-8AE6-425A-A663-A4AAA3128035";
shapes = (
{
closed = 1;
nodes = (
(40,720,l),
(57,719,o),
(113,739,o),
(154,758,qs),
(205,780,o),
(255,798,o),
(273,797,qs),
(292,796,ls),
(301,795,o),
(319,771,o),
(318,758,qs),
(314,723,o),
(232,486,o),
(138,245,o),
(120,214,qs),
(96,171,o),
(55,170,o),
(37,231,o),
(45,270,qs),
(49,292,o),
(69,324,o),
(90,347,qs),
(115,377,ls),
(148,418,o),
(172,438,qs),
(228,483,o),
(356,515,o),
(414,484,qs),
(477,452,o),
(526,319,o),
(498,160,o),
(450,90,qs),
(424,52,o),
(288,6,o),
(215,-1,qs),
(187,-3,o),
(149,7,o),
(129,16,qs),
(120,20,ls),
(95,29,o),
(71,53,o),
(65,71,qs),
(62,83,o),
(72,105,o),
(86,122,qs),
(101,140,o),
(140,149,o),
(170,147,qs),
(234,142,o),
(299,129,o),
(386,84,o),
(447,34,qs),
(465,20,o),
(440,-8,o),
(387,-24,o),
(371,-22,qs),
(361,-21,o),
(361,-17,o),
(366,-13,qs),
(374,-6,o),
(382,6,o),
(377,14,qs),
(367,33,o),
(314,87,o),
(223,135,o),
(162,142,qs),
(139,145,o),
(91,123,o),
(82,87,o),
(108,68,qs),
(142,44,o),
(322,55,o),
(482,139,o),
(501,217,qs),
(521,299,o),
(453,422,o),
(325,481,o),
(261,475,qs),
(208,470,o),
(123,370,o),
(73,259,o),
(70,243,qs),
(67,228,o),
(222,478,o),
(309,707,o),
(261,745,qs),
(233,767,o),
(146,750,o),
(89,728,qs),
(75,722,o),
(53,715,o),
(50,716,qs)
);
}
);
width = 547;
}
);
note = b;
unicode = 98;
},
{
glyphname = c;
layers = (
{
layerId = m01;
shapes = (
{
closed = 1;
nodes = (
(583,302,o),
(600,339,o),
(598,387,o),
(584,404,qs),
(567,421,o),
(537,441,o),
(525,438,qs),
(513,435,o),
(498,423,o),
(486,410,q),
(482,404,ls),
(470,383,o),
(453,365,qs),
(414,324,o),
(379,380,o),
(422,498,o),
(477,539,qs),
(492,551,o),
(501,561,qs),
(522,582,o),
(529,588,q),
(496,566,ls),
(434,524,o),
(410,504,qs),
(339,443,o),
(283,348,o),
(300,317,qs),
(315,286,o),
(379,277,o),
(409,299,qs),
(423,310,o),
(448,328,o),
(459,336,qs),
(474,347,o),
(488,354,qs),
(523,375,o),
(555,362,o),
(563,344,qs),
(570,327,o),
(572,308,o),
(570,299,q)
);
},
{
closed = 1;
nodes = (
(488,401,o),
(485,405,o),
(476,414,o),
(471,418,qs),
(468,421,o),
(459,427,q),
(431,458,o),
(322,507,o),
(231,481,qs),
(196,473,o),
(119,426,o),
(55,351,o),
(41,304,qs),
(27,255,o),
(34,147,o),
(73,61,o),
(103,43,qs),
(147,17,o),
(221,3,o),
(276,10,o),
(314,20,qs),
(345,28,ls),
(357,30,o),
(381,37,o),
(393,39,qs),
(441,49,o),
(501,44,o),
(522,-13,o),
(500,-78,q),
(474,-137,l),
(511,-67,l),
(513,-61,o),
(522,-48,o),
(526,-41,qs),
(547,-11,o),
(558,39,o),
(533,73,qs),
(509,108,o),
(457,128,o),
(403,119,o),
(356,103,qs),
(332,95,o),
(278,79,o),
(221,70,o),
(191,70,qs),
(169,70,o),
(128,168,o),
(123,299,o),
(148,346,qs),
(167,379,o),
(219,421,o),
(286,438,o),
(326,436,qs),
(331,436,o),
(341,436,o),
(346,435,q),
(392,434,o),
(454,423,o),
(485,404,q)
);
}
);
width = 599;
},
{
layerId = "0F07E72C-8AE6-425A-A663-A4AAA3128035";
shapes = (
{
closed = 1;
nodes = (
(583,302,o),
(600,340,o),
(598,387,o),
(584,404,qs),
(571,419,o),
(538,441,o),
(525,438,qs),
(513,435,o),
(498,423,o),
(486,410,q),
(480,400,ls),
(469,380,o),
(453,365,qs),
(384,300,o),
(351,359,o),
(420,507,o),
(477,549,qs),
(487,556,o),
(496,563,q),
(505,567,o),
(529,588,q),
(496,566,ls),
(434,524,o),
(410,504,qs),
(339,443,o),
(283,348,o),
(300,317,qs),
(315,286,o),
(379,277,o),
(409,299,qs),
(422,309,o),
(445,340,o),
(461,365,qs),
(481,397,o),
(489,403,qs),
(525,429,o),
(570,394,o),
(581,357,qs),
(586,339,o),
(579,306,o),
(570,299,q)
);
},
{
closed = 1;
nodes = (
(484,399,o),
(483,402,o),
(476,410,o),
(471,415,qs),
(459,427,o),
(459,427,q),
(432,458,o),
(322,507,o),
(231,481,qs),
(196,473,o),
(119,426,o),
(55,351,o),
(41,304,qs),
(27,255,o),
(34,147,o),
(73,61,o),
(103,43,qs),
(147,17,o),
(238,-2,o),
(319,2,o),
(360,9,qs),
(394,16,ls),
(405,18,o),
(428,25,o),
(438,28,qs),
(480,41,o),
(517,40,o),
(522,-12,o),
(500,-78,q),
(474,-137,l),
(511,-67,l),
(513,-61,o),
(522,-48,o),
(526,-41,qs),
(547,-11,o),
(558,39,o),
(533,73,qs),
(515,99,o),
(471,107,o),
(426,87,o),
(389,64,qs),
(346,37,o),
(280,8,o),
(200,6,o),
(158,30,qs),
(127,48,o),
(83,135,o),
(71,237,o),
(83,275,qs),
(110,361,o),
(208,458,o),
(314,489,o),
(357,481,qs),
(373,478,o),
(402,460,o),
(429,439,qs),
(441,430,o),
(469,409,o),
(482,401,q)
);
}
);
width = 599;
}
);
note = c;
unicode = 99;
},
{
glyphname = d;
lastChange = "2024-05-22 21:03:45 +0000";
layers = (
{
layerId = m01;
shapes = (
{
closed = 1;
nodes = (
(652,926,o),
(560,809,o),
(528,801,qs),
(517,799,o),
(505,796,q),
(477,792,o),
(437,774,o),
(420,750,qs),
(406,730,o),
(363,444,o),
(349,290,qs),
(337,170,o),
(337,87,qs),
(337,62,o),
(344,29,o),
(350,20,qs),
(360,4,o),
(389,2,o),
(407,10,qs),
(430,20,o),
(454,60,o),
(456,81,qs),
(464,188,o),
(467,282,o),
(411,453,o),
(332,486,qs),
(298,501,o),
(260,497,qs),
(226,493,o),
(116,416,o),
(32,291,o),
(30,217,qs),
(29,193,o),
(49,120,o),
(81,54,o),
(100,40,qs),
(145,6,o),
(247,-7,o),
(416,73,o),
(542,178,qs),
(547,182,o),
(552,185,qs),
(574,201,o),
(602,206,o),
(623,191,qs),
(635,182,o),
(648,179,qs),
(660,176,o),
(680,178,o),
(688,184,qs),
(717,204,o),
(721,208,q),
(715,204,ls),
(693,188,o),
(687,197,q),
(682,211,l),
(669,265,o),
(641,278,qs),
(629,284,o),
(608,279,o),
(583,265,qs),
(564,254,o),
(506,208,o),
(476,183,qs),
(427,141,o),
(351,82,o),
(316,63,qs),
(291,50,o),
(240,53,o),
(192,77,o),
(169,96,qs),
(143,117,o),
(133,241,o),
(208,384,o),
(303,437,qs),
(335,454,o),
(378,402,o),
(401,315,o),
(412,254,qs),
(416,233,o),
(424,198,o),
(427,193,qs),
(432,185,o),
(445,282,o),
(458,402,qs),
(467,486,ls),
(478,582,o),
(504,732,o),
(513,743,qs),
(553,794,ls),
(639,897,o),
(684,977,q)
);
}
);
width = 591;
},
{
layerId = "0F07E72C-8AE6-425A-A663-A4AAA3128035";
shapes = (
{
closed = 1;
nodes = (
(652,926,o),
(560,809,o),
(528,801,qs),
(520,799,o),
(511,797,qs),
(491,792,o),
(465,776,o),
(448,750,qs),
(435,731,o),
(430,683,o),
(432,619,qs),
(435,526,o),
(435,500,qs),
(435,478,o),
(425,369,o),
(419,310,qs),
(404,162,o),
(394,4,o),
(407,10,qs),
(430,20,o),
(454,60,o),
(456,81,qs),
(464,188,o),
(467,282,o),
(411,453,o),
(332,486,qs),
(298,501,o),
(260,497,qs),
(213,492,o),
(124,438,o),
(32,291,o),
(30,217,qs),
(29,193,o),
(49,120,o),
(81,54,o),
(100,40,qs),
(145,6,o),
(247,-7,o),
(416,73,o),
(542,178,q),
(551,184,o),
(568,201,qs),
(589,221,o),
(617,234,o),
(634,222,qs),
(642,216,o),
(656,200,qs),
(666,188,o),
(681,179,o),
(688,184,qs),
(717,204,o),
(721,208,q),
(715,204,ls),
(693,188,o),
(687,197,q),
(682,211,l),
(669,265,o),
(641,278,qs),
(629,284,o),
(608,279,o),
(583,265,qs),
(564,254,o),
(525,217,o),
(489,179,qs),
(443,131,o),
(382,75,o),
(348,56,qs),
(313,37,o),
(262,17,o),
(195,16,o),
(155,32,qs),
(85,60,o),
(64,298,o),
(172,490,o),
(268,468,qs),
(337,452,o),
(405,373,o),
(421,289,o),
(422,236,qs),
(423,221,o),
(424,197,o),
(427,193,qs),
(432,185,o),
(445,282,o),
(458,402,qs),
(467,486,ls),
(478,582,o),
(504,732,o),
(513,743,qs),
(553,794,ls),
(639,897,o),
(684,977,q)
);
}
);
width = 591;
}
);
note = d;
unicode = 100;
},
{
glyphname = e;
layers = (
{
layerId = m01;
shapes = (
{
closed = 1;
nodes = (
(400,212,o),
(460,289,o),
(476,381,o),
(456,427,qs),
(434,477,o),
(349,519,o),
(248,507,o),
(202,481,qs),
(172,463,o),
(96,377,o),
(38,266,o),
(32,212,qs),
(26,157,o),
(44,78,o),
(110,20,o),
(175,6,qs),
(216,-3,o),
(311,17,o),
(391,50,o),
(452,79,qs),
(471,87,o),
(507,95,o),
(523,96,qs),
(531,97,o),
(544,96,o),
(549,96,q),
(542,103,o),
(536,125,qs),
(531,143,o),
(517,161,o),
(498,163,qs),
(473,166,o),
(404,151,o),
(349,132,qs),
(333,126,o),
(317,120,o),
(301,114,qs),
(257,96,o),
(206,82,o),
(184,88,qs),
(155,96,o),
(118,115,o),
(95,171,o),
(108,221,qs),
(122,277,o),
(197,385,o),
(299,450,o),
(350,444,qs),
(367,443,o),
(401,407,o),
(411,386,qs),
(422,358,o),
(386,276,o),
(356,254,q),
(356,255,o),
(356,257,o),
(355,259,o),
(355,260,qs),
(354,289,o),
(304,358,o),
(221,401,q),
(193,372,l),
(202,360,o),
(225,324,o),
(235,307,qs),
(262,264,o),
(301,211,o),
(320,198,qs),
(328,193,o),
(352,188,o),
(355,190,qs)
);
}
);
width = 519;
},
{
layerId = "0F07E72C-8AE6-425A-A663-A4AAA3128035";
shapes = (
{
closed = 1;
nodes = (
(400,212,o),
(460,289,o),
(476,381,o),
(456,427,qs),
(434,477,o),
(349,519,o),
(248,507,o),
(202,481,qs),
(172,463,o),
(96,377,o),
(38,266,o),
(32,212,qs),
(26,157,o),
(44,78,o),
(110,20,o),
(175,6,qs),
(217,-3,o),
(337,32,o),
(456,97,o),
(497,132,qs),
(510,143,o),
(524,131,o),
(533,115,qs),
(536,108,o),
(545,96,o),
(549,96,q),
(542,103,o),
(536,125,qs),
(531,143,o),
(517,161,o),
(498,163,qs),
(467,166,o),
(419,156,o),
(374,132,qs),
(360,125,o),
(330,98,o),
(317,84,qs),
(281,46,o),
(220,12,o),
(175,21,qs),
(155,25,o),
(104,75,o),
(76,157,o),
(89,207,qs),
(110,288,o),
(196,426,o),
(305,504,o),
(358,500,qs),
(394,497,o),
(423,416,o),
(426,375,qs),
(428,343,o),
(388,265,o),
(356,243,qs),
(329,225,o),
(298,229,o),
(269,269,o),
(238,325,qs),
(222,353,o),
(207,380,o),
(191,409,q),
(184,402,l),
(195,387,o),
(221,341,o),
(234,319,qs),
(263,268,o),
(301,211,o),
(320,198,qs),
(328,193,o),
(352,188,o),
(355,190,qs)
);
}
);
width = 519;
}
);
note = e;
unicode = 101;
},
{
glyphname = f;
layers = (
{
layerId = m01;
shapes = (
{
closed = 1;
nodes = (
(88,487,o),
(139,513,qs),
(240,564,o),
(376,647,o),
(427,732,o),
(353,756,qs),
(316,768,o),
(276,724,o),
(267,647,o),
(274,613,qs),
(278,595,o),
(276,515,o),
(271,441,qs),
(263,309,o),
(261,132,o),
(277,76,qs),
(279,71,o),
(282,62,o),
(284,57,qs),
(291,37,o),
(294,15,o),
(276,0,o),
(250,0,qs),
(200,0,o),
(132,87,o),
(148,203,qs),
(152,232,o),
(196,473,o),
(248,704,o),
(266,746,qs),
(279,775,o),
(304,800,o),
(325,800,qs),
(370,800,o),
(442,739,qs),
(450,733,l),
(473,745,o),
(499,722,o),
(499,695,qs),
(499,656,o),
(488,629,o),
(466,616,qs),
(423,590,o),
(272,530,o),
(119,485,o),
(74,478,q)
);
},
{
closed = 1;
nodes = (
(114,410,o),
(205,442,o),
(263,466,qs),
(335,496,o),
(415,515,o),
(452,500,qs),
(469,494,o),
(511,470,o),
(534,451,o),
(526,451,qs),
(520,451,ls),
(504,451,o),
(464,443,o),
(433,430,qs),
(416,423,o),
(368,408,qs),
(283,382,o),
(106,340,o),
(81,344,qs),
(57,348,o),
(27,372,o),
(35,396,o),
(61,401,qs)
);
}
);
width = 482;
},
{
layerId = "0F07E72C-8AE6-425A-A663-A4AAA3128035";
shapes = (
{
closed = 1;
nodes = (
(103,489,o),
(144,509,qs),
(236,552,o),
(403,651,o),
(466,739,o),
(392,756,qs),
(378,759,o),
(306,716,o),
(238,647,o),
(226,613,qs),
(212,574,o),
(193,450,o),
(190,382,qs),
(184,264,o),
(213,65,o),
(250,27,qs),
(256,20,o),
(285,10,o),
(298,7,qs),
(311,3,o),
(314,1,o),
(281,0,o),
(250,0,qs),
(205,0,o),
(145,84,o),
(148,203,qs),
(150,307,o),
(189,519,o),
(242,692,o),
(266,746,qs),
(279,775,o),
(304,800,o),
(325,800,qs),
(370,800,o),
(442,739,qs),
(450,733,l),
(473,745,o),
(499,722,o),
(499,695,qs),
(499,670,o),
(483,637,o),
(466,629,qs),
(434,613,o),
(220,530,o),
(26,459,o),
(74,478,qs)
);
},
{
closed = 1;
nodes = (
(80,401,o),
(151,422,o),
(223,446,qs),
(320,479,o),
(430,509,o),
(452,500,qs),
(467,494,o),
(507,468,o),
(535,445,o),
(526,451,qs),
(520,455,ls),
(496,472,o),
(448,487,o),
(418,475,qs),
(387,461,o),
(355,447,qs),
(257,401,o),
(105,340,o),
(81,344,qs),
(58,348,o),
(26,376,o),
(34,401,o),
(61,401,qs)
);
}
);
width = 482;
}
);
note = f;
unicode = 102;
},
{
glyphname = g;
layers = (
{
layerId = m01;
shapes = (
{
closed = 1;
nodes = (
(174,344,o),
(228,366,o),
(263,374,qs),
(293,382,o),
(324,395,o),
(335,409,qs),
(349,427,o),
(357,450,o),
(342,472,o),
(319,486,qs),
(299,499,o),
(201,467,o),
(142,419,qs),
(96,382,o),
(42,328,o),
(6,261,o),
(3,218,qs),
(-3,139,o),
(52,36,o),
(140,-6,o),
(181,1,qs),
(256,14,o),
(366,85,o),
(427,157,o),
(446,189,qs),
(450,195,o),
(454,200,o),
(454,198,qs),
(454,189,o),
(453,180,qs),
(452,140,o),
(444,75,o),
(420,0,o),
(397,-33,qs),
(314,-151,o),
(126,-239,o),
(54,-239,qs),
(9,-239,o),
(-5,-271,o),
(42,-309,o),
(72,-313,qs),
(115,-319,o),
(165,-322,o),
(215,-308,o),
(228,-286,qs),
(240,-267,o),
(429,-200,o),
(611,-179,o),
(633,-213,qs),
(654,-245,o),
(634,-338,o),
(530,-408,o),
(430,-408,qs),
(415,-408,o),
(380,-401,qs),
(341,-393,o),
(290,-389,o),
(249,-408,o),
(245,-435,qs),
(240,-469,o),
(239,-514,o),
(253,-538,o),
(271,-535,qs),
(287,-532,o),
(335,-502,o),
(368,-473,qs),
(380,-462,o),
(417,-450,o),
(454,-441,qs),
(522,-425,o),
(615,-382,o),
(647,-333,qs),
(687,-273,o),
(679,-150,o),
(573,-103,o),
(478,-146,qs),
(251,-248,l),
(260,-234,o),
(291,-202,o),
(310,-185,qs),
(347,-151,o),
(411,-83,o),
(447,-35,qs),
(506,44,o),
(562,214,o),
(566,345,o),
(552,364,qs),
(538,383,o),
(524,402,qs),
(491,445,o),
(463,470,o),
(443,465,qs),
(436,464,o),
(431,445,o),
(427,420,qs),
(421,367,o),
(389,259,o),
(346,194,qs),
(318,152,o),
(248,92,o),
(173,68,o),
(139,78,qs),
(113,86,o),
(80,175,o),
(99,283,o),
(146,321,qs)
);
}
);
width = 566;
},
{
layerId = "0F07E72C-8AE6-425A-A663-A4AAA3128035";
shapes = (
{
closed = 1;
nodes = (
(163,421,o),
(239,426,o),
(290,418,qs),
(314,414,o),
(338,414,o),
(343,419,qs),
(353,429,o),
(357,449,o),
(341,472,o),
(319,486,qs),
(299,499,o),
(201,467,o),
(142,419,qs),
(96,382,o),
(42,328,o),
(6,261,o),
(3,218,qs),
(-3,139,o),
(52,36,o),
(140,-6,o),
(181,1,qs),
(256,14,o),
(376,144,o),
(449,285,o),
(480,361,qs),
(486,375,o),
(493,393,o),
(494,390,qs),
(500,360,o),
(501,343,qs),
(508,274,o),
(485,111,o),
(440,-28,o),
(415,-65,qs),
(332,-182,o),
(132,-264,o),
(54,-264,qs),
(9,-264,o),
(-5,-284,o),
(41,-308,o),
(72,-313,qs),
(103,-317,o),
(167,-313,o),
(220,-290,o),
(234,-268,qs),
(247,-246,o),
(465,-166,o),
(648,-162,o),
(648,-232,qs),
(648,-276,o),
(587,-393,o),
(486,-462,o),
(426,-443,qs),
(402,-436,o),
(377,-432,qs),
(350,-427,o),
(296,-424,o),
(254,-428,o),
(245,-435,qs),
(219,-455,o),
(205,-471,o),
(220,-474,o),
(245,-473,qs),
(265,-473,o),
(318,-473,o),
(343,-476,qs),
(363,-478,o),
(416,-473,o),
(445,-466,qs),
(505,-451,o),
(613,-385,o),
(647,-333,qs),
(687,-273,o),
(679,-150,o),
(573,-103,o),
(478,-146,qs),
(251,-248,ls),
(235,-256,o),
(250,-238,o),
(280,-211,qs),
(333,-161,o),
(413,-81,o),
(447,-35,qs),
(505,42,o),
(553,209,o),
(558,334,o),
(552,364,qs),
(548,387,o),
(539,409,qs),
(522,447,o),
(469,471,o),
(443,465,qs),
(436,464,o),
(433,443,o),
(434,420,qs),
(434,359,o),
(416,248,o),
(380,178,qs),
(357,133,o),
(268,49,o),
(163,6,o),
(117,20,qs),
(64,36,o),
(33,184,o),
(80,353,o),
(129,393,qs)
);
}
);
width = 566;
}
);
note = g;
unicode = 103;
},
{
glyphname = h;
layers = (
{
layerId = m01;
shapes = (
{
closed = 1;
nodes = (
(201,701,o),
(201,606,o),
(200,557,qs),
(199,511,o),
(198,465,qs),
(198,357,o),
(180,98,o),
(167,67,qs),
(158,48,o),
(139,29,o),
(121,31,qs),
(96,35,o),
(47,73,o),
(24,129,o),
(33,157,qs),
(43,191,o),
(191,306,o),
(275,347,qs),
(335,375,o),
(407,400,o),
(445,400,qs),
(464,400,o),
(485,376,o),
(478,316,o),
(454,265,qs),
(440,236,o),
(358,156,o),
(307,112,qs),
(294,101,ls),
(274,82,o),
(262,52,o),
(268,36,qs),
(278,6,o),
(312,-43,o),
(337,-37,qs),
(396,-23,o),
(438,-10,qs),
(484,5,o),
(539,34,o),
(556,66,o),
(542,84,qs),
(524,109,o),
(446,96,o),
(390,74,qs),
(381,70,o),
(365,64,o),
(359,63,q),
(370,80,o),
(407,127,o),
(427,150,qs),
(487,220,o),
(554,320,o),
(561,429,o),
(509,474,qs),
(470,509,o),
(223,420,o),
(-9,262,o),
(-23,211,qs),
(-45,132,o),
(3,75,qs),
(35,38,o),
(108,-2,o),
(131,4,qs),
(173,14,o),
(208,60,o),
(246,235,o),
(285,475,qs),
(318,672,ls),
(322,699,o),
(295,761,o),
(249,801,o),
(227,797,qs),
(200,793,o),
(194,745,o),
(198,722,qs),
(198,720,ls)
);
}
);
width = 603;
},
{
layerId = "0F07E72C-8AE6-425A-A663-A4AAA3128035";
shapes = (
{
closed = 1;
nodes = (
(247,697,o),
(250,590,o),
(249,536,qs),
(249,481,o),
(244,436,qs),
(234,345,o),
(182,102,o),
(167,67,qs),
(160,51,o),
(107,16,o),
(88,18,qs),
(63,21,o),
(14,73,o),
(-9,142,o),
(1,170,qs),
(33,258,o),
(204,391,o),
(299,418,qs),
(352,433,o),
(456,435,o),
(481,418,qs),
(508,399,o),
(523,325,o),
(503,244,o),
(481,218,qs),
(434,162,o),
(379,120,o),
(340,102,qs),
(294,78,ls),
(283,71,o),
(268,42,o),
(268,36,qs),
(268,17,o),
(309,-7,o),
(337,0,qs),
(374,9,o),
(438,22,qs),
(492,33,o),
(539,45,o),
(555,66,o),
(542,84,qs),
(526,106,o),
(418,70,o),
(348,36,qs),
(331,28,o),
(309,19,o),
(314,24,qs),
(325,35,o),
(335,46,o),
(346,57,qs),
(424,137,o),
(530,272,o),
(569,421,o),
(509,474,qs),
(470,509,o),
(223,420,o),
(-9,262,o),
(-23,211,qs),
(-45,132,o),
(3,75,qs),
(35,38,o),
(108,-2,o),
(131,4,qs),
(171,14,o),
(204,62,o),
(236,224,o),
(277,477,qs),
(309,672,ls),
(321,745,o),
(324,791,o),
(299,807,o),
(262,800,qs),
(236,795,o),
(235,744,o),
(242,723,qs),
(243,720,ls)
);
}
);
width = 603;
}
);
note = h;
unicode = 104;
},
{
glyphname = i;
layers = (
{
layerId = m01;
shapes = (
{
closed = 1;
nodes = (
(133,762,o),
(143,755,qs),
(147,753,o),
(155,749,o),
(159,748,qs),
(169,746,o),
(199,748,o),
(214,750,qs),
(238,754,o),
(251,754,qs),
(273,755,o),
(288,737,o),
(290,727,q),
(288,714,o),
(275,680,o),
(262,675,qs),
(237,665,o),
(200,667,o),
(180,679,qs),
(168,687,o),
(157,696,o),
(151,704,qs),
(148,708,ls),
(142,716,o),
(135,743,o),
(134,756,qs)
);
},
{
closed = 1;
nodes = (
(-21,384,o),
(-13,387,o),
(3,384,qs),
(15,382,o),
(68,404,o),
(123,440,o),
(138,459,qs),
(169,497,o),
(183,500,qs),
(210,507,o),
(243,498,o),
(249,476,qs),
(256,452,o),
(244,368,o),
(226,280,qs),
(220,248,o),
(213,217,o),
(207,184,qs),
(182,54,o),
(208,68,o),
(262,205,o),
(288,280,qs),
(296,302,l),
(305,325,ls),
(311,341,o),
(321,366,o),
(325,373,q),
(322,366,ls),
(314,348,o),
(307,324,qs),
(299,295,o),
(286,229,o),
(282,198,qs),
(276,150,o),
(261,81,o),
(248,52,qs),
(237,27,o),
(213,-1,o),
(202,-3,q),
(192,-3,o),
(179,13,o),
(171,28,q),
(170,31,ls),
(156,59,o),
(152,82,o),
(155,113,qs),
(156,128,ls),
(158,156,o),
(161,213,o),
(161,242,qs),
(162,266,o),
(162,315,o),
(162,339,q),
(157,331,o),
(127,312,o),
(108,305,qs),
(82,297,o),
(32,302,o),
(-10,340,o),
(-19,378,qs)
);
}
);
width = 325;
},
{
layerId = "0F07E72C-8AE6-425A-A663-A4AAA3128035";
shapes = (
{
closed = 1;
nodes = (
(133,762,o),
(140,753,qs),
(143,749,o),
(151,741,o),
(156,739,qs),
(177,729,o),
(203,733,o),
(221,742,qs),
(236,750,o),
(251,754,qs),
(273,759,o),
(290,737,o),
(290,727,qs),
(290,719,o),
(275,692,o),
(262,686,qs),
(244,678,o),
(203,678,o),
(189,686,qs),
(177,693,o),
(162,704,o),
(157,710,qs),
(154,714,ls),
(147,724,o),
(135,748,o),
(134,756,qs)
);
},
{
closed = 1;
nodes = (
(-21,384,o),
(-13,387,o),
(3,384,qs),
(15,382,o),
(68,404,o),
(123,440,o),
(138,459,qs),
(169,497,o),
(183,500,qs),
(210,507,o),
(243,498,o),
(249,476,qs),
(253,462,o),
(244,423,o),
(232,385,qs),
(215,335,o),
(193,249,o),
(188,196,qs),
(173,32,o),
(200,-6,o),
(253,132,o),
(277,221,qs),
(290,274,l),
(299,303,ls),
(306,325,o),
(322,369,o),
(325,373,q),
(322,366,ls),
(314,348,o),
(307,324,qs),
(300,298,o),
(295,246,o),
(294,206,qs),
(293,149,o),
(279,71,o),
(256,35,qs),
(242,14,o),
(218,1,o),
(202,-3,q),
(190,-3,o),
(172,3,o),
(165,9,qs),
(163,11,ls),
(147,27,o),
(127,78,o),
(125,111,qs),
(125,128,ls),
(124,203,o),
(158,316,o),
(188,381,qs),
(209,427,o),
(220,474,o),
(208,493,qs),
(203,501,o),
(171,474,o),
(139,440,qs),
(98,397,o),
(40,347,o),
(-10,340,o),
(-19,378,qs)
);
}
);
width = 325;
}
);
note = i;
unicode = 105;
},
{
glyphname = j;
layers = (
{
layerId = m01;
shapes = (
{
closed = 1;
nodes = (
(98,494,o),
(101,492,o),
(103,491,qs),
(113,485,o),
(125,482,o),
(139,482,qs),
(160,482,o),
(192,488,o),
(210,493,qs),
(236,501,o),
(277,505,o),
(307,498,qs),
(322,495,o),
(332,455,o),
(327,435,qs),
(326,430,o),
(323,419,o),
(322,413,qs),
(303,339,o),
(297,319,qs),
(291,299,o),
(276,219,o),
(276,187,qs),
(276,155,o),
(266,-21,o),
(263,-44,qs),
(256,-92,o),
(241,-151,o),
(215,-199,o),
(192,-224,qs),
(177,-241,o),
(98,-263,o),
(13,-272,o),
(-7,-269,qs),
(-27,-266,o),
(-60,-223,o),
(-65,-160,o),
(-48,-130,qs),
(-15,-72,o),
(140,77,o),
(299,155,qs),
(350,180,o),
(483,235,qs),
(503,243,ls),
(593,279,o),
(593,276,o),
(509,233,qs),
(359,155,l),
(284,110,o),
(93,-46,o),
(41,-130,qs),
(30,-148,o),
(25,-181,o),
(34,-202,o),
(41,-201,qs),
(66,-199,o),
(116,-189,o),
(159,-169,o),
(170,-153,qs),
(193,-119,o),
(212,-64,o),
(216,10,o),
(215,99,qs),
(214,130,o),
(214,211,qs),
(214,223,o),
(220,291,o),
(224,327,qs),
(227,353,o),
(233,399,o),
(236,416,qs),
(237,419,o),
(233,418,o),
(230,416,qs),
(219,410,o),
(188,402,o),
(167,407,q),
(149,415,o),
(119,451,o),
(100,486,o),
(96,495,q)
);
},
{
closed = 1;
nodes = (
(182,761,o),
(185,758,qs),
(190,753,o),
(204,742,o),
(214,739,qs),
(219,737,o),
(235,737,o),
(244,737,qs),
(276,737,o),
(321,729,o),
(331,714,qs),
(341,698,o),
(329,665,o),
(314,657,qs),
(284,641,o),
(228,662,o),
(204,697,qs),
(191,716,o),
(179,747,o),
(177,766,o),
(179,764,qs)
);
}
);
width = 412;
},
{
layerId = "0F07E72C-8AE6-425A-A663-A4AAA3128035";
shapes = (
{
closed = 1;
nodes = (
(102,494,o),
(110,490,o),
(113,488,qs),
(117,486,o),
(129,482,o),
(139,482,qs),
(157,482,o),
(189,490,o),
(209,498,qs),
(241,510,o),
(283,510,o),
(308,489,qs),
(323,476,o),
(327,434,o),
(321,412,qs),
(319,406,o),
(317,395,o),
(316,389,qs),
(305,344,o),
(297,319,qs),
(291,299,o),
(276,219,o),
(276,187,qs),
(276,155,o),
(266,-21,o),
(263,-44,qs),
(255,-98,o),
(245,-145,o),
(225,-186,o),
(204,-213,qs),
(182,-240,o),
(98,-266,o),
(13,-267,o),
(-7,-258,qs),
(-27,-249,o),
(-59,-212,o),
(-65,-160,o),
(-48,-130,qs),
(-15,-72,o),
(140,77,o),
(299,155,qs),
(350,180,o),
(483,235,qs),
(503,243,ls),
(594,280,o),
(595,278,o),
(510,236,qs),
(362,163,ls),
(230,97,o),
(71,-30,o),
(13,-123,qs),
(1,-142,o),
(-6,-195,o),
(8,-242,o),
(26,-253,qs),
(45,-265,o),
(104,-258,o),
(158,-230,o),
(170,-213,qs),
(194,-177,o),
(215,-119,o),
(223,-36,o),
(227,62,qs),
(229,109,o),
(231,155,qs),
(236,253,o),
(263,380,o),
(282,437,qs),
(292,468,o),
(294,492,o),
(284,500,qs),
(278,504,o),
(263,495,o),
(248,482,qs),
(226,463,o),
(193,443,o),
(173,448,qs),
(155,453,o),
(115,475,o),
(90,497,o),
(96,495,qs)
);
},
{
closed = 1;
nodes = (
(179,761,o),
(181,755,q),
(186,747,o),
(204,733,o),
(214,729,qs),
(237,722,o),
(274,720,o),
(294,722,qs),
(310,723,o),
(326,721,o),
(331,714,qs),
(343,698,o),
(330,666,o),
(314,657,qs),
(282,639,o),
(227,656,o),
(204,697,qs),
(193,717,o),
(181,748,o),
(179,763,o),
(179,764,qs)
);
}
);
width = 412;
}
);
note = j;
unicode = 106;
},
{
glyphname = k;
layers = (
{
layerId = m01;
shapes = (
{
closed = 1;
nodes = (
(137,779,ls),
(134,793,o),
(173,801,o),
(232,789,o),
(256,774,q),
(271,753,o),
(262,735,o),
(247,730,qs),
(242,728,o),
(232,723,o),
(231,720,qs),
(215,686,o),
(163,452,o),
(137,315,q),
(171,332,o),
(209,353,o),
(246,385,o),
(260,408,qs),
(271,426,o),
(295,470,o),
(300,487,qs),
(305,503,o),
(302,512,qs),
(297,533,o),
(331,509,qs),
(340,503,ls),
(364,487,o),
(388,462,o),
(387,445,qs),
(384,427,o),
(289,339,o),
(187,271,o),
(172,276,q),
(248,242,o),
(381,114,o),
(444,2,o),
(420,0,qs),
(374,-4,l),
(356,2,o),
(334,21,o),
(319,39,qs),
(302,58,o),
(273,83,o),
(220,109,o),
(180,119,qs),
(173,121,o),
(182,121,qs),
(200,122,o),
(223,134,o),
(214,151,qs),
(195,187,o),
(158,227,o),
(134,239,o),
(126,240,q),
(125,225,o),
(120,200,o),
(118,190,qs),
(114,166,o),
(112,129,o),
(117,94,qs),
(124,54,o),
(123,8,o),
(97,-10,o),
(66,0,q),
(24,51,l),
(21,111,ls),
(20,126,o),
(23,137,o),
(28,141,qs),
(34,146,o),
(42,161,o),
(45,182,qs),
(66,334,o),
(94,486,qs),
(112,583,o),
(140,715,o),
(147,731,q)
);
}
);
width = 471;
},
{
layerId = "0F07E72C-8AE6-425A-A663-A4AAA3128035";
shapes = (
{
closed = 1;
nodes = (
(135,790,ls),
(134,800,o),
(186,807,o),
(244,789,o),
(256,767,qs),
(260,760,o),
(245,746,o),
(227,736,qs),
(220,732,o),
(207,723,o),
(205,720,qs),
(151,628,o),
(84,440,o),
(82,334,qs),
(82,306,o),
(185,303,o),
(307,359,o),
(338,408,qs),
(347,422,o),
(332,461,o),
(316,487,qs),
(305,502,o),
(302,512,qs),
(297,533,o),
(331,509,qs),
(340,503,ls),
(364,487,o),
(388,462,o),
(387,445,qs),
(384,427,o),
(289,339,o),
(187,271,o),
(172,276,q),
(248,242,o),
(381,114,o),
(444,2,o),
(420,0,qs),
(374,-4,l),
(357,2,o),
(351,15,o),
(354,28,qs),
(358,42,o),
(353,65,o),
(312,98,o),
(264,117,qs),
(257,120,o),
(264,118,qs),
(283,115,o),
(307,119,o),
(297,137,qs),
(278,173,o),
(177,243,o),
(74,291,o),
(73,287,qs),
(70,260,o),
(80,210,o),
(91,176,qs),
(97,157,o),
(108,114,o),
(111,94,qs),
(118,50,o),
(120,8,o),
(97,-10,o),
(66,0,q),
(24,51,l),
(21,111,ls),
(20,120,o),
(23,128,o),
(27,132,qs),
(34,141,o),
(42,159,o),
(45,182,qs),
(56,263,o),
(97,480,qs),
(119,589,o),
(139,710,o),
(138,732,qs)
);
}
);
width = 471;
}
);
note = k;
unicode = 107;
},
{
glyphname = l;
layers = (
{
layerId = m01;
shapes = (
{
closed = 1;
nodes = (
(78,791,o),
(150,805,o),
(195,789,qs),
(214,782,o),
(192,632,o),
(156,465,qs),
(151,440,o),
(145,415,qs),
(140,392,o),
(123,323,qs),
(105,257,o),
(94,181,o),
(102,145,q),
(109,131,o),
(132,118,o),
(150,113,qs),
(172,107,o),
(195,91,o),
(198,71,qs),
(205,36,o),
(172,-1,o),
(121,0,o),
(103,15,qs),
(90,26,o),
(71,60,o),
(58,92,qs),
(48,116,o),
(42,127,qs),
(33,145,ls),
(22,165,o),
(19,179,o),
(25,188,qs),
(31,195,o),
(38,195,qs),
(42,195,o),
(45,200,o),
(48,224,o),
(49,245,qs),
(51,285,o),
(59,335,qs),
(63,361,o),
(73,435,qs),
(85,532,o),
(98,768,o),
(91,768,qs),
(87,768,ls),
(78,767,o),
(66,768,o),
(68,771,qs)
);
}
);
width = 226;
},
{
layerId = "0F07E72C-8AE6-425A-A663-A4AAA3128035";
shapes = (
{
closed = 1;
nodes = (
(80,795,o),
(117,807,o),
(153,779,qs),
(168,768,o),
(155,698,o),
(128,606,qs),
(105,531,o),
(90,476,qs),
(75,422,o),
(69,365,qs),
(62,295,o),
(77,173,o),
(96,137,qs),
(105,119,o),
(136,97,o),
(160,84,qs),
(177,74,o),
(195,61,o),
(198,53,qs),
(206,26,o),
(185,-2,o),
(144,0,o),
(127,15,qs),
(113,26,o),
(83,67,o),
(68,92,qs),
(59,110,o),
(49,127,qs),
(38,148,ls),
(28,167,o),
(25,180,o),
(31,188,qs),
(37,195,o),
(42,195,qs),
(45,195,o),
(47,201,o),
(48,224,o),
(49,245,qs),
(51,285,o),
(59,335,qs),
(63,361,o),
(73,435,qs),
(85,532,o),
(98,768,o),
(91,768,qs),
(87,768,ls),
(78,767,o),
(66,768,o),
(68,771,qs)
);
}
);
width = 226;
}
);
note = l;
unicode = 108;
},
{
glyphname = m;
layers = (
{
layerId = m01;
shapes = (
{
closed = 1;
nodes = (
(-26,43,ls),
(-17,24,o),
(3,1,o),
(38,0,o),
(64,20,qs),
(96,47,o),
(186,203,o),
(235,360,o),
(216,397,qs),
(188,452,o),
(116,431,o),
(76,326,o),
(91,274,qs),
(107,217,o),
(145,135,o),
(187,98,o),
(209,109,qs),
(225,117,o),
(259,167,o),
(275,211,qs),
(298,270,o),
(321,377,qs),
(340,465,o),
(407,522,o),
(478,490,o),
(505,450,qs),
(518,431,o),
(535,420,o),
(552,432,o),
(564,450,qs),
(590,489,o),
(663,529,o),
(697,501,qs),
(714,487,o),
(706,396,o),
(689,315,qs),
(675,251,o),
(663,166,o),
(668,138,qs),
(669,129,o),
(675,134,o),
(684,149,qs),
(714,207,o),
(762,258,qs),
(793,291,o),
(847,286,o),
(880,230,o),
(881,191,qs),
(883,141,o),
(883,138,qs),
(882,151,ls),
(877,207,o),
(871,223,qs),
(858,259,o),
(823,274,o),
(755,200,o),
(700,100,qs),
(697,95,o),
(694,89,qs),
(682,67,o),
(656,30,o),
(638,17,qs),
(609,-2,o),
(592,70,o),
(604,174,qs),
(607,200,o),
(621,258,qs),
(627,284,o),
(639,340,o),
(641,364,qs),
(642,381,o),
(632,394,o),
(613,390,o),
(601,382,qs),
(597,379,o),
(591,373,o),
(584,365,o),
(580,361,qs),
(561,340,o),
(532,321,o),
(494,335,o),
(472,371,qs),
(460,391,o),
(440,407,o),
(424,403,qs),
(404,398,o),
(364,302,o),
(333,204,qs),
(317,154,o),
(300,104,qs),
(278,42,o),
(206,-15,o),
(172,19,qs),
(72,119,o),
(44,229,qs),
(19,321,o),
(68,478,o),
(166,543,o),
(202,510,qs),
(267,450,o),
(259,258,o),
(227,178,qs),
(196,100,o),
(102,-26,o),
(16,-57,o),
(-5,-3,qs),
(-8,5,o),
(-31,53,qs)
);
}
);
width = 784;
},
{
layerId = "0F07E72C-8AE6-425A-A663-A4AAA3128035";
shapes = (
{
closed = 1;
nodes = (
(-26,44,ls),
(-20,31,o),
(-6,17,o),
(30,13,o),
(64,20,qs),
(100,27,o),
(200,188,o),
(247,391,o),
(216,467,qs),
(201,503,o),
(108,513,o),
(51,398,o),
(74,266,qs),
(83,212,o),
(152,92,o),
(230,19,o),
(252,30,qs),
(266,37,o),
(282,107,o),
(291,182,qs),
(307,311,o),
(321,377,qs),
(340,465,o),
(415,527,o),
(487,493,o),
(499,450,qs),
(509,413,o),
(524,396,o),
(541,415,o),
(564,450,qs),
(589,488,o),
(663,529,o),
(697,501,qs),
(714,487,o),
(693,368,o),
(663,256,qs),
(638,157,o),
(616,53,o),
(620,24,q),
(621,21,o),
(632,42,o),
(640,59,qs),
(707,199,o),
(762,258,qs),
(793,291,o),
(847,286,o),
(880,230,o),
(881,191,qs),
(883,141,o),
(883,138,qs),
(882,151,ls),
(877,207,o),
(871,223,qs),
(860,253,o),
(822,263,o),
(775,227,o),
(753,191,qs),
(702,108,o),
(675,55,qs),
(660,26,o),
(645,6,o),
(638,5,qs),
(617,3,o),
(593,78,o),
(604,174,qs),
(607,202,o),
(640,312,qs),
(655,361,o),
(681,459,o),
(683,482,qs),
(684,499,o),
(664,507,o),
(634,490,o),
(622,473,qs),
(561,381,o),
(513,327,o),
(489,348,o),
(470,403,qs),
(467,412,o),
(464,421,o),
(460,429,o),
(457,438,qs),
(446,468,o),
(424,507,o),
(408,503,qs),
(393,499,o),
(367,406,o),
(349,310,qs),
(321,166,o),
(300,104,qs),
(278,42,o),
(206,-15,o),
(172,19,qs),
(72,119,o),
(44,229,qs),
(19,321,o),
(68,478,o),
(166,543,o),
(202,510,qs),
(267,450,o),
(259,258,o),
(227,178,qs),
(196,100,o),
(102,-26,o),
(16,-57,o),
(-5,-3,qs),
(-8,5,o),
(-31,53,qs)
);
}
);
width = 784;
}
);
note = m;
unicode = 109;
},
{
glyphname = n;
layers = (
{
layerId = m01;
shapes = (
{
closed = 1;
nodes = (
(30,348,l),
(39,358,o),
(61,385,o),
(73,401,qs),
(111,450,o),
(157,499,o),
(168,491,qs),
(188,476,o),
(208,446,o),
(213,385,o),
(206,330,qs),
(178,123,l),
(196,131,o),
(244,195,o),
(296,287,o),
(325,344,qs),
(341,377,ls),
(369,433,o),
(410,496,o),
(460,510,o),
(486,468,qs),
(505,436,o),
(515,381,o),
(506,337,o),
(495,302,qs),
(486,275,ls),
(478,247,o),
(449,175,o),
(431,136,qs),
(417,103,o),
(389,46,o),
(381,35,q),
(407,61,o),
(498,88,o),
(587,94,o),
(611,90,qs),
(616,89,o),
(622,87,o),
(622,86,q),
(611,84,o),
(590,70,qs),
(551,43,o),
(535,10,qs),
(518,-24,o),
(445,-46,o),
(369,-18,o),
(349,17,qs),
(338,36,o),
(354,74,o),
(379,105,qs),
(407,141,o),
(417,160,qs),
(432,190,o),
(453,262,o),
(460,325,o),
(457,343,qs),
(454,366,o),
(427,387,o),
(389,364,o),
(370,327,qs),
(350,291,o),
(283,198,o),
(248,155,qs),
(224,126,o),
(184,83,o),
(177,78,q),
(170,49,o),
(170,46,q),
(164,21,o),
(156,6,o),
(144,4,qs),
(119,-1,o),
(84,5,o),
(80,26,qs),
(70,77,o),
(58,202,o),
(65,235,qs),
(69,254,o),
(89,307,o),
(99,331,qs),
(108,352,o),
(121,388,o),
(121,403,o),
(112,397,qs)
);
}
);
width = 622;
},
{
layerId = "0F07E72C-8AE6-425A-A663-A4AAA3128035";
shapes = (
{
closed = 1;
nodes = (
(30,348,ls),
(27,346,o),
(40,367,o),
(51,381,qs),
(84,426,o),
(157,501,o),
(168,491,qs),
(181,478,o),
(194,453,o),
(192,394,o),
(178,341,qs),
(105,68,ls),
(100,48,o),
(191,150,o),
(302,298,o),
(325,344,qs),
(341,377,ls),
(369,433,o),
(410,496,o),
(460,510,o),
(486,468,qs),
(505,436,o),
(515,381,o),
(506,337,o),
(495,302,qs),
(486,275,ls),
(478,248,o),
(444,179,o),
(417,130,qs),
(388,76,o),
(367,32,o),
(367,20,qs),
(367,-26,o),
(455,-12,o),
(558,45,o),
(607,77,qs),
(614,82,o),
(621,86,o),
(622,86,q),
(618,81,o),
(595,62,q),
(565,42,o),
(535,10,qs),
(507,-19,o),
(436,-40,o),
(369,-17,o),
(349,17,qs),
(338,36,o),
(354,74,o),
(379,105,qs),
(407,141,o),
(417,160,qs),
(432,189,o),
(447,279,o),
(449,363,o),
(446,383,qs),
(443,406,o),
(419,424,o),
(382,402,o),
(359,367,qs),
(335,331,o),
(258,227,o),
(221,180,qs),
(196,147,o),
(155,92,o),
(152,86,qs),
(138,59,o),
(140,25,qs),
(140,14,o),
(137,5,o),
(130,4,qs),
(106,-1,o),
(84,5,o),
(80,26,qs),
(70,79,o),
(61,166,o),
(68,199,qs),
(80,254,o),
(133,350,o),
(168,398,qs),
(187,425,o),
(193,440,o),
(161,426,o),
(112,397,qs)
);
}
);
width = 622;
}
);
note = n;
unicode = 110;
},
{
glyphname = o;
layers = (
{
layerId = m01;
shapes = (
{
closed = 1;
nodes = (
(114,405,o),
(90,433,o),
(61,443,o),
(48,432,qs),
(23,412,o),
(41,198,o),
(103,2,o),
(136,2,qs),
(150,2,o),
(206,16,o),
(237,33,qs),
(253,41,o),
(288,59,o),
(306,68,qs),
(370,98,o),
(484,141,o),
(520,144,qs),
(537,146,o),
(551,161,o),
(550,179,o),
(544,183,qs),
(530,193,o),
(478,217,o),
(466,217,q),
(491,240,o),
(542,293,o),
(562,320,qs),
(591,359,o),
(610,421,o),
(591,440,qs),
(571,460,o),
(527,485,o),
(495,495,qs),
(454,507,o),
(361,494,o),
(313,482,qs),
(263,470,o),
(215,464,qs),
(200,461,o),
(175,457,o),
(165,454,qs),
(149,448,o),
(147,434,o),
(156,423,qs),
(163,414,o),
(244,405,o),
(331,400,qs),
(355,399,o),
(406,395,o),
(456,391,o),
(481,389,q),
(476,369,o),
(414,281,o),
(339,192,o),
(321,174,qs),
(282,137,o),
(207,97,o),
(184,104,qs),
(173,107,o),
(159,176,o),
(150,243,qs),
(142,303,o),
(130,370,o),
(121,389,qs)
);
}
);
width = 633;
},
{
layerId = "0F07E72C-8AE6-425A-A663-A4AAA3128035";
shapes = (
{
closed = 1;
nodes = (
(93,381,o),
(81,422,o),
(61,443,o),
(48,432,qs),
(23,412,o),
(41,198,o),
(103,2,o),
(136,2,qs),
(150,2,o),
(206,16,o),
(237,33,qs),
(253,42,o),
(289,64,o),
(308,76,qs),
(390,129,o),
(493,174,o),
(520,151,qs),
(540,134,o),
(554,146,o),
(550,179,o),
(544,183,qs),
(530,193,o),
(478,217,o),
(466,217,qs),
(442,217,o),
(469,257,o),
(510,300,qs),
(561,353,o),
(609,422,o),
(591,440,qs),
(571,460,o),
(527,485,o),
(495,495,qs),
(454,507,o),
(361,494,o),
(313,482,qs),
(263,470,o),
(215,464,qs),
(200,461,o),
(175,457,o),
(165,454,qs),
(149,448,o),
(147,434,o),
(156,423,qs),
(159,419,o),
(201,430,o),
(244,445,qs),
(324,472,o),
(434,499,o),
(520,486,o),
(520,441,qs),
(520,420,o),
(450,292,o),
(364,160,o),
(348,144,qs),
(299,97,o),
(205,28,o),
(184,34,qs),
(170,38,o),
(133,86,o),
(119,129,qs),
(105,173,o),
(90,290,o),
(92,365,qs)
);
}
);
width = 633;
}
);
note = o;
unicode = 111;
},
{
glyphname = p;
layers = (
{
layerId = m01;
shapes = (
{
closed = 1;
nodes = (
(7,203,o),
(-9,206,qs),
(-26,209,o),
(-53,197,o),
(-63,160,o),
(-55,127,qs),
(-47,95,o),
(52,42,o),
(142,13,qs),
(201,-6,o),
(331,-3,o),
(436,31,o),
(458,57,qs),
(483,86,o),
(475,188,o),
(457,261,qs),
(443,316,o),
(353,443,o),
(234,517,o),
(179,501,qs),
(152,493,o),
(122,445,o),
(122,390,qs),
(122,340,o),
(107,195,o),
(91,69,qs),
(72,-76,o),
(58,-230,o),
(67,-255,q),
(67,-255,o),
(61,-253,q),
(47,-251,o),
(0,-258,o),
(-37,-280,o),
(-38,-300,qs),
(-39,-348,o),
(-30,-398,o),
(-12,-393,qs),
(33,-379,o),
(125,-333,o),
(141,-306,qs),
(147,-295,o),
(160,-169,o),
(167,-90,qs),
(183,105,o),
(217,375,o),
(244,445,qs),
(248,455,o),
(288,452,o),
(337,427,o),
(353,408,qs),
(383,373,o),
(442,255,o),
(455,149,o),
(421,128,qs),
(399,115,o),
(312,114,o),
(228,123,qs),
(174,128,o),
(53,174,o),
(22,194,qs)
);
}
);
width = 539;
},
{
layerId = "0F07E72C-8AE6-425A-A663-A4AAA3128035";
shapes = (
{
closed = 1;
nodes = (
(3,163,o),
(-11,182,qs),
(-22,196,o),
(-34,202,o),
(-47,171,o),
(-55,127,qs),
(-60,95,o),
(40,45,o),
(142,13,qs),
(201,-6,o),
(331,-3,o),
(436,31,o),
(458,57,qs),
(483,86,o),
(475,188,o),
(457,261,qs),
(443,316,o),
(353,443,o),
(234,517,o),
(179,501,qs),
(152,493,o),
(122,445,o),
(122,390,qs),
(122,361,o),
(124,285,o),
(125,241,qs),
(131,-36,o),
(122,-356,o),
(90,-338,q),
(89,-338,o),
(84,-333,q),
(61,-316,o),
(18,-289,o),
(-28,-281,o),
(-38,-300,qs),
(-53,-329,o),
(-35,-368,o),
(-12,-372,qs),
(29,-380,o),
(122,-338,o),
(141,-306,qs),
(148,-294,o),
(152,-151,o),
(152,-19,qs),
(153,178,o),
(163,430,o),
(178,479,qs),
(181,489,o),
(242,487,o),
(314,462,o),
(336,442,qs),
(372,409,o),
(435,248,o),
(437,102,o),
(394,81,qs),
(362,65,o),
(296,52,o),
(231,59,qs),
(179,63,o),
(70,121,o),
(10,159,qs)
);
}
);
width = 539;
}
);
note = p;
unicode = 112;
},
{
glyphname = q;
lastChange = "2024-05-22 21:10:27 +0000";
layers = (
{
layerId = m01;
shapes = (
{
closed = 1;
nodes = (
(553,-183,l),
(544,-184,o),
(522,-193,o),
(509,-202,qs),
(463,-233,o),
(346,-360,o),
(321,-399,qs),
(315,-409,o),
(278,-413,o),
(241,-413,qs),
(226,-413,o),
(243,-232,o),
(289,-14,o),
(312,34,qs),
(315,40,o),
(306,38,o),
(292,31,qs),
(245,8,o),
(156,-9,o),
(62,59,o),
(38,163,qs),
(10,286,o),
(126,435,o),
(293,497,o),
(352,501,qs),
(393,503,o),
(437,483,o),
(446,447,o),
(436,426,qs),
(423,399,o),
(411,385,o),
(393,375,qs),
(368,363,o),
(251,368,o),
(191,382,qs),
(121,398,o),
(64,453,o),
(71,509,o),
(92,527,qs),
(115,547,o),
(158,558,q),
(153,551,o),
(141,543,qs),
(128,533,o),
(114,516,o),
(115,503,qs),
(116,492,o),
(188,456,o),
(234,448,qs),
(265,441,ls),
(299,434,o),
(341,428,o),
(360,433,qs),
(377,437,o),
(387,452,o),
(361,458,o),
(332,452,qs),
(296,445,o),
(222,418,o),
(146,356,o),
(126,306,qs),
(118,284,o),
(114,175,o),
(127,140,qs),
(142,101,o),
(170,51,o),
(202,29,o),
(220,37,qs),
(230,42,o),
(239,46,qs),
(274,61,o),
(321,91,o),
(371,159,o),
(396,219,qs),
(405,242,o),
(429,283,o),
(441,297,qs),
(451,308,o),
(467,318,o),
(473,316,qs),
(483,312,o),
(490,256,o),
(485,186,o),
(476,165,qs),
(458,122,o),
(440,79,o),
(421,35,qs),
(357,-110,o),
(311,-258,o),
(329,-297,q),
(336,-282,o),
(357,-245,o),
(369,-229,qs),
(391,-200,o),
(443,-160,o),
(473,-155,q)
);
}
);
width = 533;
},
{
layerId = "0F07E72C-8AE6-425A-A663-A4AAA3128035";
shapes = (
{
closed = 1;
nodes = (
(553,-183,ls),
(556,-184,o),
(556,-186,o),
(552,-186,qs),
(505,-191,o),
(380,-274,o),
(321,-399,qs),
(316,-408,o),
(276,-413,o),
(241,-413,qs),
(226,-413,o),
(280,-242,o),
(367,-21,o),
(393,34,qs),
(396,40,o),
(382,37,o),
(359,30,qs),
(295,7,o),
(178,-8,o),
(62,60,o),
(38,163,qs),
(10,286,o),
(126,435,o),
(293,497,o),
(352,501,qs),
(393,503,o),
(440,481,o),
(449,444,o),
(436,426,qs),
(420,405,o),
(404,391,o),
(383,380,qs),
(358,367,o),
(248,368,o),
(191,382,qs),
(121,398,o),
(64,453,o),
(71,509,o),
(92,527,qs),
(115,547,o),
(158,558,qs),
(155,557,o),
(152,556,qs),
(132,550,o),
(105,534,o),
(98,519,qs),
(87,491,o),
(104,437,o),
(147,421,qs),
(165,414,ls),
(213,395,o),
(299,384,o),
(369,402,qs),
(396,409,o),
(431,447,o),
(429,484,o),
(407,490,qs),
(375,499,o),
(261,486,o),
(136,425,o),
(105,364,qs),
(57,272,o),
(68,114,o),
(106,72,qs),
(135,40,o),
(188,18,o),
(269,25,o),
(293,34,qs),
(299,36,o),
(311,42,qs),
(336,55,o),
(388,98,o),
(428,143,o),
(436,158,qs),
(447,179,o),
(456,228,o),
(461,270,qs),
(463,296,o),
(468,318,o),
(473,316,qs),
(483,312,o),
(490,256,o),
(485,186,o),
(476,165,qs),
(459,123,o),
(406,11,o),
(382,-41,qs),
(308,-196,o),
(255,-347,o),
(293,-347,qs),
(304,-347,o),
(330,-311,o),
(354,-271,qs),
(392,-209,o),
(446,-146,o),
(473,-155,qs)
);
}
);
width = 533;
}
);
note = q;
unicode = 113;
},
{
glyphname = r;
layers = (
{
layerId = m01;
shapes = (
{
closed = 1;
nodes = (
(492,496,o),
(490,461,o),
(467,430,o),
(438,418,qs),
(425,412,o),
(406,424,o),
(392,441,qs),
(375,464,o),
(357,477,qs),
(337,491,o),
(269,504,o),
(203,497,o),
(188,483,qs),
(141,440,l),
(145,462,o),
(150,501,o),
(152,518,qs),
(156,557,o),
(158,566,qs),
(161,578,o),
(158,594,o),
(148,602,o),
(139,601,qs),
(128,601,o),
(110,592,qs),
(98,586,o),
(95,585,qs),
(67,573,o),
(40,544,o),
(49,512,qs),
(62,466,o),
(85,333,o),
(78,294,qs),
(73,270,o),
(59,225,qs),
(43,177,o),
(28,108,o),
(31,77,qs),
(33,43,o),
(56,-7,o),
(69,-1,qs),
(91,9,o),
(122,59,o),
(137,121,o),
(136,150,qs),
(134,207,ls),
(133,252,o),
(131,342,o),
(134,351,qs),
(139,371,o),
(178,424,o),
(267,434,o),
(337,386,qs),
(381,355,o),
(468,378,o),
(507,468,o),
(489,530,q)
);
}
);
width = 467;
},
{
layerId = "0F07E72C-8AE6-425A-A663-A4AAA3128035";
shapes = (
{
closed = 1;
nodes = (
(492,500,o),
(493,452,o),
(487,420,o),
(479,418,qs),
(471,415,o),
(444,416,o),
(427,423,qs),
(400,433,o),
(374,462,qs),
(352,486,o),
(288,521,o),
(214,521,o),
(181,492,qs),
(147,462,ls),
(130,447,o),
(121,460,o),
(125,479,qs),
(129,505,o),
(143,538,qs),
(154,567,o),
(165,599,o),
(160,600,o),
(150,593,qs),
(134,581,o),
(120,575,qs),
(116,573,o),
(104,571,qs),
(83,567,o),
(65,548,o),
(74,517,qs),
(83,487,o),
(86,338,o),
(78,294,qs),
(73,270,o),
(59,225,qs),
(43,177,o),
(28,108,o),
(31,77,qs),
(33,44,o),
(55,-2,o),
(69,-1,qs),
(79,0,o),
(88,10,o),
(90,37,o),
(89,67,qs),
(86,129,ls),
(82,178,o),
(80,246,o),
(85,270,qs),
(99,339,o),
(208,452,o),
(342,480,o),
(390,434,qs),
(431,395,o),
(490,395,o),
(507,467,o),
(489,530,q)
);
}
);
width = 467;
}
);
note = r;
unicode = 114;
},
{
glyphname = s;
layers = (
{
layerId = m01;
shapes = (
{
closed = 1;
nodes = (
(275,508,l),
(270,509,o),
(252,499,o),
(242,492,qs),
(230,484,o),
(221,479,qs),
(206,472,o),
(180,469,o),
(163,469,qs),
(139,469,o),
(103,460,o),
(78,441,qs),
(62,429,o),
(38,367,o),
(40,347,qs),
(43,324,o),
(70,287,o),
(93,270,qs),
(105,260,o),
(121,251,qs),
(139,239,o),
(190,212,o),
(212,200,qs),
(269,169,o),
(324,134,o),
(336,117,qs),
(349,100,o),
(230,66,o),
(177,62,qs),
(139,59,o),
(49,93,o),
(32,113,qs),
(27,118,o),
(17,132,qs),
(-7,162,o),
(-48,197,o),
(-74,197,qs),
(-97,197,o),
(-134,176,o),
(-140,164,qs),
(-141,162,o),
(-136,167,qs),
(-107,193,o),
(-86,195,qs),
(-67,197,o),
(-34,174,o),
(-24,154,qs),
(-18,143,o),
(-9,120,o),
(-5,109,qs),
(7,75,o),
(31,36,o),
(91,6,o),
(145,0,qs),
(196,-6,o),
(292,14,o),
(364,48,o),
(380,62,qs),
(392,72,ls),
(421,97,o),
(452,133,o),
(455,154,qs),
(459,180,o),
(434,206,o),
(402,218,qs),
(386,224,o),
(335,237,o),
(308,243,qs),
(245,259,o),
(186,275,o),
(162,287,qs),
(128,303,o),
(79,346,o),
(93,375,qs),
(105,400,o),
(159,442,o),
(230,460,o),
(266,452,qs),
(289,447,o),
(315,437,o),
(324,428,qs),
(329,423,o),
(321,416,qs),
(318,413,o),
(309,409,o),
(306,407,q),
(323,396,o),
(339,384,qs),
(348,377,ls),
(350,375,o),
(374,386,o),
(397,405,o),
(400,416,qs),
(406,435,o),
(406,448,o),
(396,456,o),
(379,463,qs)
);
}
);
width = 496;
},
{
layerId = "0F07E72C-8AE6-425A-A663-A4AAA3128035";
shapes = (
{
closed = 1;
nodes = (
(275,508,l),
(270,509,o),
(252,499,o),
(242,492,qs),
(230,484,o),
(221,479,qs),
(206,472,o),
(180,469,o),
(163,469,qs),
(139,469,o),
(103,460,o),
(78,441,qs),
(60,428,o),
(33,363,o),
(40,347,qs),
(55,310,o),
(104,286,o),
(144,281,qs),
(173,276,o),
(177,275,qs),
(217,264,o),
(295,241,o),
(321,231,qs),
(382,208,o),
(429,156,o),
(410,120,qs),
(395,91,o),
(285,38,o),
(183,33,qs),
(145,31,o),
(49,68,o),
(32,88,qs),
(26,94,o),
(10,120,qs),
(-12,156,o),
(-50,197,o),
(-74,197,qs),
(-97,197,o),
(-134,176,o),
(-140,164,qs),
(-141,162,o),
(-136,167,qs),
(-107,193,o),
(-86,195,qs),
(-67,197,o),
(-34,174,o),
(-24,154,qs),
(-18,143,o),
(-9,120,o),
(-5,109,qs),
(7,75,o),
(31,36,o),
(91,6,o),
(145,0,qs),
(196,-6,o),
(292,8,o),
(363,32,o),
(380,44,qs),
(394,54,ls),
(421,74,o),
(451,110,o),
(451,132,qs),
(451,162,o),
(426,201,o),
(402,218,qs),
(384,231,o),
(325,247,o),
(275,257,qs),
(233,265,o),
(181,278,o),
(162,287,qs),
(136,299,o),
(93,345,o),
(93,375,qs),
(93,407,o),
(153,449,o),
(228,468,o),
(251,468,qs),
(287,468,o),
(355,445,o),
(367,433,qs),
(371,429,o),
(339,421,qs),
(327,418,o),
(306,410,o),
(306,407,qs),
(306,397,o),
(337,383,qs),
(348,377,l),
(350,375,o),
(374,386,o),
(397,405,o),
(400,416,qs),
(406,435,o),
(406,448,o),
(396,456,o),
(379,463,qs)
);
}
);
width = 496;
}
);
note = s;
unicode = 115;
},
{
glyphname = t;
lastChange = "2024-05-22 21:11:24 +0000";
layers = (
{
layerId = m01;
shapes = (
{
closed = 1;
nodes = (
(313,797,o),
(296,799,qs),
(279,802,o),
(239,794,o),
(230,783,qs),
(214,763,o),
(179,574,o),
(151,247,o),
(144,33,qs),
(143,19,o),
(176,2,o),
(203,-5,qs),
(218,-9,ls),
(226,-11,o),
(249,24,o),
(276,82,o),
(288,116,qs),
(321,205,o),
(347,314,qs),
(357,355,o),
(369,391,o),
(377,398,q),
(369,392,ls),
(356,383,o),
(342,357,o),
(316,270,o),
(288,162,qs),
(283,144,o),
(266,118,o),
(250,114,o),
(247,126,qs),
(242,144,o),
(267,396,o),
(307,669,o),
(323,722,qs),
(333,757,o),
(323,778,qs),
(321,782,o),
(318,788,o),
(316,791,qs)
);
},
{
closed = 1;
nodes = (
(180,506,o),
(122,476,qs),
(83,457,o),
(29,441,o),
(-20,439,o),
(-60,442,q),
(-60,442,o),
(-49,431,qs),
(-20,404,o),
(40,373,o),
(150,377,o),
(230,415,qs),
(251,425,o),
(263,434,qs),
(283,449,o),
(305,486,o),
(311,515,qs),
(313,525,o),
(285,541,o),
(246,544,o),
(234,537,qs)
);
}
);
width = 377;
},
{
layerId = "0F07E72C-8AE6-425A-A663-A4AAA3128035";
shapes = (
{
closed = 1;
nodes = (
(312,790,o),
(293,792,qs),
(269,795,o),
(239,794,o),
(230,783,qs),
(214,763,o),
(179,574,o),
(160,231,o),
(163,33,qs),
(163,19,o),
(176,2,o),
(203,-5,qs),
(218,-9,ls),
(226,-12,o),
(257,25,o),
(284,85,o),
(288,116,qs),
(292,145,o),
(328,262,qs),
(342,305,o),
(370,383,o),
(377,398,qs),
(380,404,l),
(381,409,o),
(344,329,o),
(296,204,o),
(272,127,qs),
(266,108,o),
(233,53,o),
(203,18,o),
(200,29,qs),
(182,96,o),
(179,262,o),
(188,549,o),
(260,737,qs),
(271,764,o),
(318,790,qs),
(321,792,o),
(320,792,o),
(316,791,qs)
);
},
{
closed = 1;
nodes = (
(175,503,o),
(131,472,qs),
(93,447,o),
(53,429,o),
(-4,430,o),
(-60,442,q),
(-36,438,o),
(-7,424,qs),
(24,410,o),
(76,399,o),
(163,416,o),
(229,447,qs),
(246,454,o),
(262,461,qs),
(286,471,o),
(305,489,o),
(311,515,qs),
(313,525,o),
(285,541,o),
(246,544,o),
(234,537,qs)
);
}
);
width = 377;
}
);
note = t;
unicode = 116;
},
{
glyphname = u;
lastChange = "2024-05-22 21:09:26 +0000";
layers = (
{
layerId = m01;
shapes = (
{
closed = 1;
nodes = (
(232,438,o),
(208,458,o),
(174,468,o),
(166,462,qs),
(129,434,o),
(18,256,o),
(-14,74,o),
(50,27,qs),
(114,-20,o),
(285,55,o),
(435,195,o),
(485,259,qs),
(524,309,o),
(538,402,o),
(518,463,o),
(502,493,qs),
(490,516,o),
(424,461,o),
(390,407,qs),
(343,332,o),
(303,181,o),
(307,61,o),
(322,29,qs),
(335,3,o),
(389,-9,o),
(449,9,o),
(471,25,q),
(567,107,l),
(557,102,o),
(534,84,o),
(523,75,qs),
(502,57,l),
(493,50,ls),
(466,30,o),
(418,19,o),
(393,49,qs),
(374,71,o),
(365,125,o),
(399,244,o),
(447,350,qs),
(465,390,o),
(470,389,o),
(454,343,o),
(447,328,qs),
(417,262,o),
(273,108,o),
(161,62,qs),
(90,33,o),
(65,120,o),
(147,312,o),
(228,432,qs)
);
}
);
width = 567;
},
{
layerId = "0F07E72C-8AE6-425A-A663-A4AAA3128035";
shapes = (
{
closed = 1;
nodes = (
(195,438,o),
(189,458,o),
(174,468,o),
(166,462,qs),
(129,434,o),
(18,256,o),
(-14,74,o),
(50,27,qs),
(115,-20,o),
(288,39,o),
(439,177,o),
(471,236,qs),
(501,292,o),
(521,397,o),
(512,473,o),
(502,493,qs),
(490,516,o),
(424,461,o),
(390,407,qs),
(343,332,o),
(303,181,o),
(307,61,o),
(322,29,qs),
(335,3,o),
(389,-9,o),
(449,9,o),
(471,25,q),
(567,107,l),
(557,102,o),
(534,84,o),
(523,75,qs),
(502,57,l),
(495,52,ls),
(457,24,o),
(383,-1,o),
(357,29,qs),
(341,48,o),
(346,171,o),
(374,368,o),
(444,461,qs),
(471,497,o),
(497,477,o),
(511,392,o),
(502,359,qs),
(472,255,o),
(306,112,o),
(171,57,qs),
(63,13,o),
(17,101,o),
(105,304,o),
(191,432,qs)
);
}
);
width = 567;
}
);
note = u;
unicode = 117;
},
{
glyphname = v;
lastChange = "2024-05-22 21:09:52 +0000";
layers = (
{
layerId = m01;
shapes = (
{
closed = 1;
nodes = (
(193,349,o),
(161,351,o),
(97,368,o),
(76,388,qs),
(60,403,o),
(69,449,o),
(105,479,o),
(125,472,qs),
(144,465,o),
(176,404,o),
(192,323,o),
(190,290,qs),
(189,272,o),
(185,236,qs),
(178,176,o),
(181,96,o),
(200,61,qs),
(228,9,o),
(274,0,qs),
(290,-3,o),
(350,27,o),
(362,45,qs),
(367,53,o),
(369,75,o),
(368,94,qs),
(367,133,o),
(374,202,o),
(415,302,o),
(459,361,qs),
(489,402,o),
(553,423,o),
(580,412,qs),
(600,404,o),
(609,411,qs),
(613,415,o),
(619,428,o),
(620,438,qs),
(624,468,o),
(602,495,o),
(569,500,qs),
(560,501,ls),
(548,503,o),
(539,500,o),
(529,488,q),
(521,482,l),
(433,428,o),
(359,294,qs),
(323,229,o),
(297,155,o),
(292,127,qs),
(291,122,o),
(290,116,o),
(289,111,qs),
(285,99,o),
(262,136,o),
(230,251,o),
(214,349,qs),
(210,374,o),
(187,431,o),
(157,474,o),
(142,481,qs),
(118,492,o),
(40,478,o),
(18,453,qs),
(-6,425,o),
(12,357,o),
(55,335,qs),
(75,325,o),
(129,331,o),
(164,341,qs),
(190,349,o),
(200,349,qs)
);
}
);
width = 591;
},
{
layerId = "0F07E72C-8AE6-425A-A663-A4AAA3128035";
shapes = (
{
closed = 1;
nodes = (
(167,349,o),
(153,348,o),
(81,341,o),
(56,362,qs),
(40,376,o),
(43,448,o),
(90,492,o),
(125,479,qs),
(145,472,o),
(176,407,o),
(192,323,o),
(190,290,qs),
(189,272,o),
(185,236,qs),
(178,176,o),
(181,96,o),
(200,61,qs),
(228,9,o),
(274,0,qs),
(290,-3,o),
(350,27,o),
(362,45,qs),
(367,53,o),
(369,77,o),
(368,100,qs),
(367,144,o),
(374,222,o),
(415,328,o),
(459,387,qs),
(492,431,o),
(575,481,o),
(599,472,qs),
(613,466,o),
(616,434,qs),
(617,429,o),
(619,430,o),
(620,438,qs),
(624,468,o),
(602,495,o),
(569,500,qs),
(560,501,ls),
(550,502,o),
(533,495,o),
(521,488,qs),
(515,484,ls),
(469,452,o),
(387,303,qs),
(360,254,o),
(337,175,o),
(328,126,qs),
(322,87,o),
(307,48,o),
(287,35,qs),
(274,27,o),
(237,70,o),
(211,215,o),
(214,349,qs),
(214,373,o),
(192,429,o),
(157,474,o),
(142,481,qs),
(118,492,o),
(40,478,o),
(18,453,qs),
(-6,425,o),
(12,357,o),
(55,335,qs),
(75,325,o),
(129,331,o),
(164,341,qs),
(210,349,o),
(200,349,qs)
);
}
);
width = 591;
}
);
note = v;
unicode = 118;
},
{
glyphname = w;
layers = (
{
layerId = m01;
shapes = (
{
closed = 1;
nodes = (
(28,86,o),
(21,77,o),
(9,86,o),
(-6,102,qs),
(-23,120,o),
(-16,181,o),
(4,234,qs),
(18,274,o),
(81,384,o),
(168,456,o),
(211,435,qs),
(215,433,ls),
(230,425,o),
(248,411,o),
(254,397,qs),
(258,384,o),
(250,326,o),
(240,279,qs),
(234,244,o),
(227,209,qs),
(224,193,o),
(223,130,o),
(228,80,o),
(233,78,qs),
(239,76,o),
(246,84,o),
(252,98,qs),
(277,159,o),
(325,221,qs),
(328,225,o),
(335,230,o),
(338,232,qs),
(347,236,o),
(366,233,o),
(375,226,qs),
(380,222,o),
(389,199,o),
(393,185,qs),
(395,175,o),
(402,155,o),
(406,145,qs),
(424,100,o),
(448,56,o),
(462,49,qs),
(476,42,o),
(514,53,o),
(524,71,qs),
(545,105,o),
(582,178,o),
(597,281,o),
(569,319,qs),
(562,329,o),
(532,354,o),
(516,366,qs),
(475,398,o),
(431,443,o),
(427,469,qs),
(423,494,o),
(477,532,o),
(523,541,qs),
(569,550,o),
(603,543,o),
(616,527,q),
(619,521,ls),
(629,501,o),
(652,477,qs),
(662,467,o),
(678,455,qs),
(687,448,o),
(710,428,o),
(724,413,qs),
(754,381,l),
(729,405,ls),
(713,420,o),
(655,459,o),
(577,484,o),
(541,475,qs),
(510,468,o),
(523,440,o),
(555,412,qs),
(586,383,o),
(617,349,o),
(624,328,qs),
(632,302,o),
(605,188,o),
(564,72,o),
(547,30,qs),
(539,10,o),
(514,-13,o),
(501,-15,qs),
(469,-18,o),
(426,-9,o),
(392,27,o),
(375,64,qs),
(368,79,o),
(359,122,o),
(356,142,qs),
(353,157,ls),
(352,162,o),
(339,136,qs),
(306,77,o),
(238,-4,o),
(197,0,qs),
(170,3,o),
(145,107,o),
(162,266,o),
(192,345,qs),
(197,358,o),
(193,375,o),
(179,380,o),
(172,375,qs),
(141,356,o),
(88,290,o),
(57,219,o),
(57,191,qs),
(57,173,o),
(71,152,o),
(81,148,qs),
(87,146,o),
(96,146,q),
(129,153,l),
(121,152,ls),
(117,151,o),
(105,148,o),
(95,144,qs),
(63,131,o),
(37,114,o),
(33,102,qs)
);
}
);
width = 654;
},
{
layerId = "0F07E72C-8AE6-425A-A663-A4AAA3128035";
shapes = (
{
closed = 1;
nodes = (
(39,109,o),
(26,89,o),
(7,88,o),
(-6,102,qs),
(-23,120,o),
(-16,181,o),
(4,234,qs),
(18,274,o),
(81,384,o),
(168,456,o),
(211,435,qs),
(215,433,ls),
(225,427,o),
(237,413,o),
(243,397,qs),
(248,384,o),
(241,332,o),
(230,273,qs),
(223,236,o),
(219,211,qs),
(209,150,o),
(207,62,o),
(216,16,o),
(222,14,qs),
(229,12,o),
(245,26,o),
(257,42,qs),
(280,75,o),
(334,176,qs),
(336,180,o),
(340,190,o),
(342,195,qs),
(349,214,o),
(361,232,o),
(368,226,qs),
(372,223,o),
(376,197,o),
(377,181,qs),
(379,149,o),
(387,100,o),
(396,78,qs),
(413,38,o),
(448,-9,o),
(465,-10,qs),
(483,-11,o),
(525,29,o),
(538,52,qs),
(549,71,o),
(588,183,o),
(597,307,o),
(569,345,qs),
(561,356,o),
(535,374,o),
(510,388,qs),
(471,409,o),
(430,444,o),
(427,469,qs),
(423,494,o),
(477,532,o),
(523,541,qs),
(569,550,o),
(603,543,o),
(616,527,q),
(619,521,ls),
(629,501,o),
(652,477,qs),
(662,467,o),
(678,455,qs),
(687,448,o),
(710,428,o),
(724,413,qs),
(754,381,l),
(729,405,ls),
(711,422,o),
(621,486,o),
(516,531,o),
(480,519,qs),
(457,511,o),
(477,465,o),
(511,430,qs),
(533,408,o),
(595,353,o),
(624,328,qs),
(645,311,o),
(636,226,o),
(609,149,o),
(587,96,qs),
(578,75,o),
(517,-4,o),
(504,-9,qs),
(476,-20,o),
(430,-13,o),
(392,27,o),
(375,64,qs),
(368,79,o),
(359,122,o),
(356,142,qs),
(353,157,ls),
(352,162,o),
(339,136,qs),
(306,77,o),
(238,-4,o),
(197,0,qs),
(171,3,o),
(162,107,o),
(192,266,o),
(219,345,qs),
(224,359,o),
(222,400,o),
(207,432,o),
(194,435,qs),
(161,443,o),
(78,335,o),
(14,191,o),
(14,161,qs),
(14,143,o),
(27,139,o),
(46,145,q),
(69,155,o),
(90,157,qs),
(106,160,l),
(116,161,ls),
(120,161,o),
(113,159,o),
(103,158,qs),
(82,156,o),
(49,138,o),
(45,126,qs)
);
}
);
width = 654;
}
);
note = w;
unicode = 119;
},
{
glyphname = x;
layers = (
{
layerId = m01;
shapes = (
{
closed = 1;
nodes = (
(217,505,o),
(169,475,o),
(153,449,qs),
(140,429,o),
(114,402,o),
(81,376,qs),
(62,360,o),
(50,347,o),
(50,340,qs),
(50,333,o),
(70,321,o),
(97,312,qs),
(120,305,o),
(158,306,o),
(172,314,qs),
(187,322,o),
(207,349,o),
(210,365,qs),
(223,424,l),
(230,420,o),
(247,394,o),
(258,375,qs),
(313,281,o),
(367,207,qs),
(377,194,o),
(399,120,o),
(402,94,qs),
(403,78,l),
(401,66,o),
(399,59,qs),
(396,46,o),
(397,36,qs),
(400,14,o),
(432,-5,o),
(446,-5,qs),
(452,-5,o),
(468,10,o),
(481,27,qs),
(499,49,o),
(531,81,o),
(551,95,qs),
(590,121,o),
(611,148,o),
(603,169,qs),
(598,183,o),
(565,202,o),
(551,198,qs),
(536,194,o),
(474,137,o),
(463,117,q),
(447,95,l),
(439,110,o),
(429,158,o),
(423,197,qs),
(416,243,o),
(402,304,o),
(391,326,qs),
(365,377,o),
(303,451,o),
(251,492,o),
(239,497,qs)
);
},
{
closed = 1;
nodes = (
(487,380,o),
(505,392,o),
(512,397,qs),
(542,417,o),
(557,443,o),
(547,461,qs),
(539,475,o),
(498,475,o),
(465,459,qs),
(446,450,o),
(331,354,o),
(205,222,o),
(163,156,qs),
(139,118,o),
(111,48,o),
(111,25,qs),
(111,19,o),
(104,10,qs),
(100,5,o),
(102,3,o),
(127,6,o),
(150,10,qs),
(162,12,o),
(191,33,o),
(198,45,qs),
(201,49,o),
(208,65,o),
(213,76,qs),
(240,136,o),
(290,232,o),
(321,270,qs),
(347,302,o),
(402,337,o),
(442,356,qs),
(463,365,o),
(478,374,qs)
);
}
);
width = 616;
},
{
layerId = "0F07E72C-8AE6-425A-A663-A4AAA3128035";
shapes = (
{
closed = 1;
nodes = (
(217,505,o),
(169,475,o),
(153,449,qs),
(140,429,o),
(114,402,o),
(81,376,qs),
(62,360,o),
(50,347,o),
(50,340,qs),
(50,331,o),
(70,315,o),
(97,312,qs),
(106,311,o),
(129,349,o),
(146,389,qs),
(167,437,o),
(196,488,o),
(211,491,q),
(211,491,l),
(226,488,o),
(271,436,o),
(297,392,qs),
(360,287,o),
(417,138,qs),
(428,111,o),
(423,84,o),
(413,72,qs),
(407,64,ls),
(400,54,o),
(398,44,q),
(395,36,o),
(397,20,qs),
(400,5,o),
(434,-8,o),
(446,-5,qs),
(453,-3,o),
(469,12,o),
(482,28,qs),
(502,52,o),
(531,81,o),
(551,95,qs),
(590,121,o),
(611,148,o),
(603,169,qs),
(598,181,o),
(568,172,o),
(551,159,qs),
(539,149,o),
(494,96,o),
(478,75,qs),
(467,60,ls),
(454,43,o),
(433,105,o),
(417,181,qs),
(410,217,o),
(393,291,o),
(384,312,qs),
(364,364,o),
(305,445,o),
(251,492,o),
(239,497,qs)
);
},
{
closed = 1;
nodes = (
(487,399,o),
(505,409,o),
(513,414,qs),
(546,434,o),
(560,451,o),
(547,461,qs),
(531,473,o),
(496,474,o),
(465,459,qs),
(446,450,o),
(331,354,o),
(205,222,o),
(163,156,qs),
(139,118,o),
(111,48,o),
(111,25,qs),
(111,19,o),
(104,10,qs),
(100,5,o),
(102,3,o),
(127,6,o),
(150,10,qs),
(160,12,o),
(177,30,o),
(186,45,qs),
(188,48,o),
(186,58,o),
(184,64,qs),
(173,95,o),
(184,172,o),
(230,229,qs),
(257,263,o),
(360,328,o),
(435,368,qs),
(457,380,o),
(478,392,q)
);
}
);
width = 616;
}
);
note = x;
unicode = 120;
},
{
glyphname = y;
layers = (
{
layerId = m01;
shapes = (
{
closed = 1;
nodes = (
(301,477,o),
(243,496,o),
(219,496,qs),
(213,496,o),
(210,493,o),
(210,487,q),
(213,469,o),
(198,447,qs),
(186,428,o),
(122,339,qs),
(30,215,o),
(17,188,qs),
(-2,150,o),
(-1,82,o),
(11,56,qs),
(32,15,o),
(77,7,qs),
(134,-3,o),
(250,27,o),
(295,55,qs),
(311,64,o),
(370,107,o),
(431,159,o),
(446,182,qs),
(459,201,o),
(469,279,o),
(452,345,o),
(430,351,qs),
(411,356,o),
(368,340,o),
(332,307,o),
(321,288,qs),
(309,268,o),
(284,10,o),
(276,-118,qs),
(274,-143,ls),
(267,-243,o),
(274,-363,o),
(282,-413,qs),
(284,-424,o),
(285,-440,o),
(283,-443,qs),
(269,-460,o),
(214,-486,o),
(149,-493,o),
(121,-481,qs),
(82,-465,o),
(33,-427,o),
(19,-373,o),
(40,-337,qs),
(84,-263,o),
(265,-79,o),
(358,1,qs),
(379,20,o),
(403,39,qs),
(448,76,o),
(550,156,o),
(579,177,qs),
(596,188,ls),
(620,202,o),
(620,207,o),
(574,184,o),
(537,162,qs),
(451,111,o),
(402,78,qs),
(376,60,ls),
(273,-11,o),
(40,-211,o),
(-21,-305,qs),
(-48,-348,o),
(-67,-428,o),
(-44,-428,qs),
(-20,-428,o),
(22,-471,o),
(42,-501,qs),
(49,-511,ls),
(75,-545,o),
(159,-577,o),
(251,-572,o),
(289,-555,qs),
(329,-537,o),
(358,-500,o),
(357,-472,qs),
(355,-436,o),
(353,-399,qs),
(349,-350,o),
(345,-254,o),
(345,-170,qs),
(345,-96,o),
(348,87,o),
(357,225,o),
(365,240,qs),
(393,287,o),
(399,306,o),
(371,266,o),
(360,245,qs),
(349,224,o),
(288,166,o),
(206,111,o),
(167,93,qs),
(123,73,o),
(59,76,o),
(38,120,o),
(55,156,qs),
(60,167,o),
(93,197,o),
(128,225,qs),
(197,281,o),
(227,312,qs),
(244,330,o),
(269,368,o),
(278,388,qs),
(287,406,o),
(296,441,o),
(298,457,qs)
);
}
);
width = 490;
},
{
layerId = "0F07E72C-8AE6-425A-A663-A4AAA3128035";
shapes = (
{
closed = 1;
nodes = (
(301,477,o),
(267,492,o),
(246,492,qs),
(239,492,o),
(229,489,o),
(225,485,qs),
(218,478,o),
(198,447,qs),
(186,428,o),
(122,339,qs),
(30,215,o),
(17,188,qs),
(-2,150,o),
(-1,82,o),
(11,56,qs),
(32,15,o),
(77,7,qs),
(134,-3,o),
(250,27,o),
(295,55,qs),
(308,63,o),
(378,126,o),
(439,199,o),
(446,224,qs),
(455,259,o),
(460,302,o),
(448,336,o),
(430,351,qs),
(415,363,o),
(370,341,o),
(329,289,o),
(321,260,qs),
(314,237,o),
(298,-31,o),
(296,-119,qs),
(296,-143,ls),
(296,-214,o),
(299,-316,o),
(300,-347,qs),
(302,-372,o),
(302,-413,o),
(299,-439,qs),
(295,-479,o),
(242,-522,o),
(170,-527,o),
(138,-514,qs),
(98,-497,o),
(47,-456,o),
(20,-380,o),
(27,-319,qs),
(36,-235,o),
(227,-58,o),
(356,32,qs),
(382,51,o),
(407,70,qs),
(441,99,o),
(535,158,o),
(587,188,qs),
(604,198,ls),
(628,212,o),
(618,209,o),
(573,184,o),
(537,162,qs),
(451,111,o),
(402,78,qs),
(378,63,ls),
(275,-2,o),
(92,-147,o),
(32,-241,qs),
(8,-279,o),
(-16,-369,o),
(-11,-394,qs),
(-3,-433,o),
(26,-485,o),
(44,-504,qs),
(54,-514,ls),
(87,-546,o),
(155,-575,o),
(224,-572,o),
(262,-555,qs),
(301,-537,o),
(347,-479,o),
(352,-449,qs),
(357,-424,o),
(341,-315,qs),
(330,-228,o),
(318,-101,o),
(318,-35,qs),
(318,27,o),
(338,177,o),
(366,296,o),
(376,313,qs),
(405,360,o),
(430,338,o),
(425,256,o),
(413,233,qs),
(400,208,o),
(313,117,o),
(198,36,o),
(143,23,qs),
(106,14,o),
(56,34,o),
(32,86,o),
(32,128,qs),
(32,143,o),
(49,195,o),
(65,228,qs),
(99,297,o),
(161,375,qs),
(176,393,o),
(215,412,o),
(245,421,qs),
(272,430,o),
(297,444,o),
(298,457,qs)
);
}
);
width = 490;
}
);
note = y;
unicode = 121;
},
{
glyphname = z;
layers = (
{
layerId = m01;
shapes = (
{
closed = 1;
nodes = (
(92,460,o),
(110,464,o),
(133,465,qs),
(167,466,o),
(232,474,o),
(268,485,qs),
(332,505,o),
(409,507,o),
(449,488,qs),
(479,474,o),
(396,333,o),
(319,246,qs),
(295,219,o),
(271,191,qs),
(256,174,o),
(229,142,o),
(214,124,q),
(228,129,o),
(287,110,o),
(336,71,o),
(340,47,qs),
(347,9,o),
(335,-175,o),
(319,-358,qs),
(313,-409,o),
(310,-455,qs),
(308,-480,o),
(215,-490,o),
(82,-460,o),
(25,-431,qs),
(18,-428,o),
(15,-423,q),
(5,-412,o),
(1,-381,o),
(0,-341,qs),
(0,-314,o),
(99,-192,o),
(174,-119,qs),
(220,-73,o),
(304,22,o),
(365,96,qs),
(398,137,o),
(468,219,o),
(497,249,qs),
(530,284,o),
(452,187,qs),
(275,-37,o),
(41,-370,o),
(86,-387,qs),
(121,-401,o),
(190,-397,o),
(239,-378,o),
(249,-371,qs),
(254,-367,o),
(278,-193,o),
(293,-2,o),
(288,43,qs),
(287,54,o),
(263,68,o),
(232,61,o),
(222,44,qs),
(208,21,o),
(182,2,o),
(157,0,o),
(137,3,q),
(132,3,o),
(128,4,o),
(123,4,qs),
(104,6,o),
(94,53,o),
(100,97,o),
(106,133,qs),
(108,147,o),
(147,193,o),
(186,233,qs),
(232,282,o),
(290,349,o),
(315,385,q),
(297,373,o),
(245,358,o),
(218,359,qs),
(179,360,o),
(114,405,o),
(95,454,qs)
);
}
);
width = 478;
},
{
layerId = "0F07E72C-8AE6-425A-A663-A4AAA3128035";
shapes = (
{
closed = 1;
nodes = (
(90,457,o),
(103,459,o),
(116,459,qs),
(162,463,o),
(228,473,o),
(268,485,qs),
(341,508,o),
(417,514,o),
(449,488,qs),
(478,465,o),
(401,338,o),
(319,246,qs),
(285,207,o),
(171,100,qs),
(146,77,o),
(116,48,o),
(130,59,qs),
(166,86,o),
(262,98,o),
(336,72,o),
(340,47,qs),
(347,9,o),
(335,-175,o),
(319,-358,qs),
(313,-409,o),
(310,-455,qs),
(308,-480,o),
(227,-490,o),
(107,-461,o),
(50,-431,qs),
(45,-429,o),
(40,-426,qs),
(24,-419,o),
(4,-398,o),
(0,-373,qs),
(-5,-341,o),
(80,-228,o),
(174,-119,qs),
(231,-54,o),
(288,11,o),
(347,78,qs),
(397,134,o),
(446,191,o),
(497,249,qs),
(481,231,o),
(465,212,qs),
(306,23,o),
(38,-335,o),
(67,-360,qs),
(95,-384,o),
(173,-420,o),
(240,-428,o),
(252,-413,qs),
(270,-391,o),
(299,-211,o),
(312,-6,o),
(306,43,qs),
(305,55,o),
(280,80,o),
(239,89,o),
(214,79,qs),
(206,76,o),
(189,63,o),
(172,45,o),
(165,36,qs),
(151,20,o),
(132,3,o),
(123,0,qs),
(104,-5,o),
(91,32,o),
(98,85,o),
(106,98,qs),
(122,124,o),
(185,185,o),
(239,234,qs),
(325,312,o),
(426,423,o),
(443,474,qs),
(448,491,o),
(401,487,o),
(342,472,qs),
(260,452,o),
(139,437,o),
(95,454,q)
);
}
);
width = 478;
}
);
note = z;
unicode = 122;
},
{
glyphname = one;
lastChange = "2024-05-22 21:12:34 +0000";
layers = (
{
layerId = m01;
shapes = (
{
closed = 1;
nodes = (
(285,686,l),
(267,680,o),
(209,691,qs),
(148,700,o),
(122,700,qs),
(100,700,o),
(55,685,o),
(28,662,o),
(30,650,qs),
(34,628,o),
(60,616,o),
(87,614,qs),
(111,612,o),
(143,604,o),
(158,592,qs),
(177,578,o),
(160,445,o),
(134,323,qs),
(116,237,o),
(98,134,o),
(98,100,qs),
(98,45,o),
(155,-1,o),
(214,-4,qs),
(222,-4,o),
(190,5,o),
(184,27,qs),
(174,58,o),
(186,217,o),
(203,346,qs),
(219,487,o),
(228,618,o),
(214,626,q)
);
}
);
width = 315;
},
{
layerId = "0F07E72C-8AE6-425A-A663-A4AAA3128035";
shapes = (
{
closed = 1;
nodes = (
(285,686,l),
(267,680,o),
(209,691,qs),
(148,700,o),
(122,700,qs),
(100,700,o),
(55,685,o),
(27,660,o),
(30,650,qs),
(34,638,o),
(79,655,o),
(106,653,qs),
(130,651,o),
(161,638,o),
(173,623,qs),
(188,604,o),
(199,445,o),
(173,323,qs),
(155,237,o),
(110,134,o),
(110,100,qs),
(110,45,o),
(155,-1,o),
(214,-4,qs),
(222,-4,o),
(186,4,o),
(167,19,qs),
(133,45,o),
(182,229,o),
(199,358,qs),
(215,499,o),
(228,618,o),
(214,626,q)
);
}
);
width = 315;
}
);
note = one;
unicode = 49;
},
{
glyphname = two;
lastChange = "2024-05-22 21:27:54 +0000";
layers = (
{
layerId = m01;
shapes = (
{
closed = 1;
nodes = (
(416,705,o),
(232,700,o),
(94,634,o),
(103,565,qs),
(106,543,o),
(136,524,o),
(180,536,o),
(204,557,qs),
(242,591,o),
(340,638,o),
(395,638,qs),
(431,638,o),
(467,564,o),
(439,462,o),
(391,423,qs),
(355,393,o),
(267,348,o),
(201,319,qs),
(128,287,o),
(55,244,o),
(42,217,qs),
(31,195,o),
(29,95,o),
(57,12,o),
(88,6,qs),
(124,-1,o),
(197,11,o),
(282,44,o),
(367,82,qs),
(416,104,ls),
(446,118,o),
(475,115,o),
(481,96,o),
(481,76,qs),
(481,58,o),
(483,50,qs),
(486,34,o),
(498,10,o),
(509,-2,o),
(510,0,qs),
(515,11,o),
(523,37,qs),
(532,67,o),
(538,80,qs),
(547,99,o),
(555,177,o),
(540,246,o),
(517,257,qs),
(491,270,o),
(452,267,o),
(427,246,qs),
(420,240,o),
(409,222,o),
(404,213,qs),
(391,187,o),
(359,149,o),
(321,127,qs),
(205,60,o),
(155,63,qs),
(150,63,o),
(147,103,o),
(158,166,o),
(173,201,qs),
(192,243,o),
(251,292,o),
(304,322,qs),
(365,358,o),
(395,382,qs),
(451,428,o),
(523,554,o),
(513,664,o),
(455,689,qs)
);
}
);
width = 582;
},
{
layerId = "0F07E72C-8AE6-425A-A663-A4AAA3128035";
shapes = (
{
closed = 1;
nodes = (
(416,705,o),
(232,700,o),
(94,634,o),
(103,565,qs),
(106,543,o),
(136,524,o),
(180,608,o),
(204,629,qs),
(242,663,o),
(341,684,o),
(395,672,qs),
(431,664,o),
(467,564,o),
(439,462,o),
(391,423,qs),
(355,393,o),
(267,348,o),
(201,319,qs),
(128,287,o),
(80,244,o),
(67,217,qs),
(56,195,o),
(29,95,o),
(57,12,o),
(88,6,qs),
(124,-1,o),
(202,4,o),
(334,38,o),
(367,82,qs),
(426,160,ls),
(446,186,o),
(491,169,o),
(500,115,o),
(495,76,qs),
(493,60,o),
(493,44,qs),
(493,29,o),
(498,10,o),
(509,-2,o),
(510,0,qs),
(515,11,o),
(523,37,qs),
(532,67,o),
(538,80,qs),
(547,99,o),
(555,177,o),
(540,246,o),
(517,257,qs),
(491,270,o),
(452,267,o),
(427,246,qs),
(420,240,o),
(409,222,o),
(404,213,qs),
(391,187,o),
(377,149,o),
(343,115,qs),
(226,11,o),
(113,43,qs),
(94,48,o),
(67,112,o),
(79,201,o),
(94,236,qs),
(113,278,o),
(253,299,o),
(304,322,qs),
(404,367,o),
(441,405,qs),
(494,459,o),
(523,554,o),
(513,664,o),
(455,689,qs)
);
}
);
width = 582;
}
);
note = two;
unicode = 50;
},
{
glyphname = three;
lastChange = "2024-05-22 21:16:37 +0000";
layers = (
{
layerId = m01;
shapes = (
{
closed = 1;
nodes = (
(103,517,o),
(50,538,o),
(8,545,o),
(0,544,q),
(4,544,o),
(43,549,o),
(62,556,qs),
(98,570,o),
(159,602,qs),
(259,653,o),
(415,715,o),
(494,720,qs),
(511,721,o),
(550,715,o),
(550,705,qs),
(550,686,ls),
(550,677,o),
(538,660,o),
(522,646,qs),
(482,612,o),
(378,500,o),
(358,460,q),
(369,462,o),
(393,474,qs),
(412,484,o),
(439,495,o),
(456,494,qs),
(493,494,o),
(566,441,o),
(580,373,qs),
(592,312,o),
(570,175,o),
(521,112,qs),
(481,59,o),
(358,-6,o),
(295,0,qs),
(221,5,o),
(87,118,o),
(53,206,qs),
(58,195,ls),
(69,173,o),
(81,158,qs),
(109,124,o),
(176,95,o),
(220,87,qs),
(259,80,o),
(348,92,o),
(388,110,qs),
(472,148,o),
(519,256,qs),
(540,304,o),
(526,396,o),
(470,450,o),
(432,447,qs),
(398,444,o),
(320,407,o),
(295,373,qs),
(281,352,ls),
(263,325,o),
(249,316,o),
(241,355,o),
(235,417,q),
(239,427,o),
(257,445,qs),
(263,451,l),
(461,677,ls),
(463,679,o),
(441,675,o),
(402,661,o),
(378,649,qs),
(358,639,o),
(305,605,qs),
(211,544,o),
(125,500,q)
);
}
);
width = 617;
},
{
layerId = "0F07E72C-8AE6-425A-A663-A4AAA3128035";
shapes = (
{
closed = 1;
nodes = (
(103,517,o),
(50,538,o),
(8,545,o),
(0,544,q),
(4,544,o),
(43,549,o),
(62,556,qs),
(98,570,o),
(159,602,qs),
(259,653,o),
(415,715,o),
(494,720,qs),
(511,721,o),
(550,715,o),
(550,705,qs),
(550,686,ls),
(550,677,o),
(538,660,o),
(522,646,qs),
(482,612,o),
(378,500,o),
(358,460,q),
(369,462,o),
(393,474,qs),
(412,484,o),
(439,495,o),
(456,494,qs),
(493,494,o),
(566,441,o),
(580,373,qs),
(592,312,o),
(570,175,o),
(521,112,qs),
(481,59,o),
(358,-6,o),
(295,0,qs),
(221,5,o),
(87,118,o),
(53,206,qs),
(58,195,ls),
(69,173,o),
(81,158,qs),
(109,124,o),
(155,87,o),
(214,64,qs),
(247,51,o),
(351,51,o),
(393,73,qs),
(491,124,o),
(536,242,qs),
(555,292,o),
(545,405,o),
(475,457,o),
(437,454,qs),
(403,451,o),
(350,432,o),
(314,405,qs),
(292,388,ls),
(265,367,o),
(249,335,o),
(249,335,o),
(243,397,q),
(246,413,o),
(270,445,qs),
(292,474,l),
(513,690,ls),
(515,692,o),
(451,700,o),
(405,688,o),
(378,677,qs),
(334,663,o),
(259,613,qs),
(169,553,o),
(125,500,q)
);
}
);
width = 617;
}
);
note = three;
unicode = 51;
},
{
glyphname = four;
lastChange = "2024-05-22 21:19:16 +0000";
layers = (
{
layerId = m01;
shapes = (
{
closed = 1;
nodes = (
(72,683,o),
(96,671,o),
(103,669,qs),
(114,666,o),
(176,682,o),
(227,697,qs),
(269,709,l),
(283,713,ls),
(313,721,o),
(353,725,o),
(372,717,qs),
(404,704,o),
(429,690,o),
(434,681,qs),
(446,662,o),
(446,652,qs),
(446,641,o),
(430,627,o),
(414,617,qs),
(395,604,ls),
(364,580,o),
(205,423,o),
(165,367,qs),
(125,311,o),
(121,277,o),
(162,291,o),
(219,317,qs),
(288,349,o),
(443,440,o),
(496,491,qs),
(509,504,o),
(497,617,o),
(487,656,qs),
(485,664,o),
(485,668,o),
(488,663,qs),
(508,633,o),
(532,615,qs),
(545,605,o),
(568,547,o),
(578,483,o),
(574,467,qs),
(570,451,o),
(469,385,qs),
(352,308,o),
(119,190,o),
(78,200,qs),
(64,204,o),
(39,242,o),
(40,271,qs),
(41,287,o),
(130,408,o),
(212,513,qs),
(264,581,ls),
(279,600,o),
(286,612,o),
(276,605,qs),
(243,583,o),
(176,561,o),
(143,581,qs),
(120,595,o),
(77,664,o),
(63,691,q)
);
},
{
closed = 1;
nodes = (
(314,101,o),
(321,99,o),
(322,117,o),
(319,142,qs),
(311,200,o),
(315,468,o),
(324,508,qs),
(329,532,o),
(358,589,o),
(378,594,o),
(372,554,qs),
(360,460,o),
(370,146,qs),
(373,60,o),
(372,49,qs),
(370,25,o),
(359,3,o),
(349,8,qs),
(337,14,o),
(321,38,qs),
(307,56,ls),
(287,80,o),
(257,108,qs),
(245,119,o),
(239,127,o),
(247,125,qs),
(256,123,ls),
(294,114,o),
(305,107,qs)
);
}
);
width = 616;
},
{
layerId = "0F07E72C-8AE6-425A-A663-A4AAA3128035";
shapes = (
{
closed = 1;
nodes = (
(72,683,o),
(96,671,o),
(103,669,qs),
(114,666,o),
(176,682,o),
(227,697,qs),
(269,709,l),
(283,713,ls),
(313,721,o),
(353,725,o),
(372,717,qs),
(404,704,o),
(429,690,o),
(434,681,qs),
(446,662,o),
(446,652,qs),
(446,641,o),
(394,627,o),
(378,617,qs),
(352,600,ls),
(342,593,o),
(219,488,o),
(150,391,qs),
(110,335,o),
(93,265,o),
(174,267,o),
(237,297,qs),
(329,341,o),
(437,403,o),
(536,491,qs),
(550,503,o),
(497,617,o),
(487,656,qs),
(485,664,o),
(485,668,o),
(488,663,qs),
(508,633,o),
(532,615,qs),
(545,605,o),
(568,547,o),
(578,483,o),
(574,467,qs),
(570,451,o),
(469,385,qs),
(352,308,o),
(119,190,o),
(78,200,qs),
(64,204,o),
(39,242,o),
(40,271,qs),
(41,287,o),
(127,387,o),
(212,491,qs),
(323,628,ls),
(339,647,o),
(351,708,o),
(283,647,qs),
(253,620,o),
(184,597,o),
(130,620,qs),
(105,631,o),
(77,664,o),
(63,691,q)
);
},
{
closed = 1;
nodes = (
(330,74,o),
(356,64,o),
(356,116,o),
(353,141,qs),
(345,199,o),
(323,468,o),
(332,508,qs),
(338,533,o),
(367,589,o),
(378,594,o),
(372,554,qs),
(360,460,o),
(370,146,qs),
(373,60,o),
(372,49,qs),
(370,25,o),
(359,3,o),
(349,8,qs),
(337,14,o),
(321,38,qs),
(307,56,ls),
(287,80,o),
(257,108,qs),
(245,119,o),
(239,127,o),
(247,125,qs),
(256,123,ls),
(310,87,o),
(321,80,qs)
);
}
);
width = 616;
}
);
note = four;
unicode = 52;
},
{
glyphname = five;
lastChange = "2024-05-22 21:23:20 +0000";
layers = (
{
layerId = m01;
shapes = (
{
closed = 1;
nodes = (
(120,583,o),
(109,617,o),
(72,653,o),
(35,663,qs),
(21,667,o),
(8,663,o),
(4,658,qs),
(-3,649,o),
(5,624,o),
(17,605,qs),
(30,582,ls),
(46,550,o),
(76,430,o),
(71,363,qs),
(68,332,ls),
(66,313,o),
(63,273,o),
(66,255,qs),
(69,234,o),
(170,274,qs),
(183,279,o),
(214,306,o),
(239,332,qs),
(276,369,o),
(335,419,o),
(369,437,qs),
(403,456,o),
(434,447,qs),
(463,438,o),
(453,344,o),
(418,282,qs),
(388,228,o),
(277,125,o),
(159,60,o),
(121,61,qs),
(79,62,o),
(127,16,o),
(227,-7,o),
(256,16,q),
(282,48,o),
(328,92,o),
(362,122,qs),
(411,164,o),
(470,232,o),
(497,292,qs),
(520,343,o),
(497,452,o),
(406,502,o),
(333,476,qs),
(289,460,o),
(231,430,o),
(198,405,qs),
(181,391,ls),
(166,378,o),
(155,378,o),
(152,398,qs),
(146,442,o),
(131,523,qs),
(126,552,ls)
);
},
{
closed = 1;
nodes = (
(115,633,o),
(136,610,qs),
(155,587,o),
(180,564,o),
(190,564,qs),
(207,564,o),
(350,614,o),
(363,625,qs),
(372,633,ls),
(385,643,o),
(397,661,o),
(397,679,qs),
(397,689,o),
(376,713,o),
(358,716,qs),
(346,718,o),
(257,689,o),
(178,661,qs),
(146,649,l),
(131,643,l),
(123,641,o),
(112,636,o),
(113,635,qs)
);
}
);
width = 552;
},
{
layerId = "0F07E72C-8AE6-425A-A663-A4AAA3128035";
shapes = (
{
closed = 1;
nodes = (
(91,582,o),
(109,617,o),
(72,653,o),
(35,663,qs),
(21,667,o),
(8,663,o),
(4,658,qs),
(-3,649,o),
(5,624,o),
(17,605,qs),
(30,582,ls),
(46,550,o),
(76,430,o),
(71,363,qs),
(68,332,ls),
(66,313,o),
(63,273,o),
(66,255,qs),
(69,234,o),
(170,274,qs),
(183,279,o),
(215,343,o),
(239,370,qs),
(271,407,o),
(335,443,o),
(369,452,qs),
(445,474,o),
(470,449,qs),
(499,419,o),
(486,321,o),
(451,259,qs),
(421,205,o),
(282,85,o),
(164,35,o),
(126,36,qs),
(84,37,o),
(127,16,o),
(227,-7,o),
(256,16,q),
(282,48,o),
(328,92,o),
(362,122,qs),
(411,164,o),
(470,232,o),
(497,292,qs),
(520,343,o),
(497,452,o),
(406,502,o),
(333,476,qs),
(289,460,o),
(235,421,o),
(211,394,qs),
(184,363,ls),
(177,354,o),
(143,308,o),
(127,321,qs),
(110,344,o),
(96,515,qs),
(93,552,ls)
);
},
{
closed = 1;
nodes = (
(120,629,o),
(136,624,qs),
(159,617,o),
(204,614,o),
(214,614,qs),
(259,616,o),
(311,630,o),
(327,636,qs),
(363,649,ls),
(379,655,o),
(393,671,o),
(397,689,qs),
(399,699,o),
(376,713,o),
(358,716,qs),
(346,718,o),
(257,689,o),
(178,661,qs),
(146,649,l),
(131,643,l),
(123,641,o),
(112,636,o),
(113,635,qs)
);
}
);
width = 552;
}
);
note = five;
unicode = 53;
},
{
glyphname = six;
lastChange = "2024-05-22 21:26:01 +0000";
layers = (
{
layerId = m01;
shapes = (
{
closed = 1;
nodes = (
(174,728,o),
(215,726,o),
(251,712,o),
(251,705,qs),
(251,696,o),
(222,647,qs),
(181,571,o),
(170,546,qs),
(133,465,o),
(102,349,o),
(102,219,o),
(118,121,qs),
(129,56,o),
(239,49,o),
(370,127,o),
(402,176,qs),
(447,244,o),
(460,320,qs),
(472,386,o),
(425,476,o),
(358,464,qs),
(310,456,o),
(242,377,o),
(194,237,o),
(172,126,q),
(158,79,ls),
(141,21,o),
(117,-35,o),
(100,-44,qs),
(93,-48,o),
(74,-36,o),
(57,-21,qs),
(41,-7,o),
(30,36,o),
(30,64,qs),
(30,81,o),
(48,144,o),
(70,173,o),
(77,151,qs),
(83,131,l),
(87,135,o),
(101,167,o),
(109,188,qs),
(144,274,o),
(216,409,o),
(336,510,o),
(415,500,qs),
(479,492,o),
(532,415,o),
(531,319,o),
(517,275,qs),
(501,226,o),
(478,172,o),
(425,103,o),
(377,65,qs),
(330,27,o),
(247,3,o),
(181,0,qs),
(108,-1,o),
(42,123,o),
(57,232,qs),
(70,324,o),
(116,550,o),
(159,717,o),
(165,721,qs)
);
}
);
width = 561;
},
{
layerId = "0F07E72C-8AE6-425A-A663-A4AAA3128035";
shapes = (
{
closed = 1;
nodes = (
(174,728,o),
(215,726,o),
(255,712,o),
(251,705,qs),
(241,692,o),
(213,651,qs),
(167,583,o),
(132,510,qs),
(99,421,o),
(83,313,o),
(83,161,o),
(102,102,qs),
(124,35,o),
(247,27,o),
(385,96,o),
(425,139,qs),
(504,238,o),
(501,344,qs),
(499,411,o),
(425,499,o),
(358,487,qs),
(310,479,o),
(216,384,o),
(152,222,o),
(156,130,qs),
(158,79,ls),
(160,19,o),
(117,-35,o),
(100,-44,qs),
(93,-48,o),
(74,-36,o),
(57,-21,qs),
(41,-7,o),
(30,36,o),
(30,64,qs),
(30,81,o),
(48,144,o),
(70,173,o),
(77,151,qs),
(97,84,l),
(101,88,o),
(110,161,o),
(115,182,qs),
(138,275,o),
(216,409,o),
(336,510,o),
(415,500,qs),
(479,492,o),
(532,415,o),
(531,319,o),
(517,275,qs),
(501,226,o),
(478,172,o),
(425,103,o),
(377,65,qs),
(330,27,o),
(247,3,o),
(181,0,qs),
(108,-1,o),
(42,123,o),
(57,232,qs),
(70,324,o),
(116,550,o),
(159,717,o),
(165,721,qs)
);
}
);
width = 561;
}
);
note = six;
unicode = 54;
},
{
glyphname = seven;
lastChange = "2024-05-22 21:27:27 +0000";
layers = (
{
layerId = m01;
shapes = (
{
closed = 1;
nodes = (
(29,642,o),
(32,645,o),
(46,640,qs),
(88,624,o),
(129,618,qs),
(158,614,o),
(284,629,o),
(422,668,o),
(469,696,qs),
(509,720,o),
(555,709,o),
(579,676,qs),
(603,643,o),
(592,604,o),
(545,589,qs),
(514,579,o),
(415,526,o),
(310,438,o),
(274,382,qs),
(226,308,o),
(195,158,o),
(190,75,qs),
(188,51,ls),
(182,-20,o),
(144,0,qs),
(134,5,o),
(126,49,o),
(127,71,qs),
(131,136,o),
(244,360,o),
(401,573,o),
(464,622,qs),
(476,631,o),
(445,622,o),
(404,607,qs),
(305,570,o),
(151,528,o),
(116,542,q),
(92,556,o),
(59,595,o),
(39,626,qs)
);
}
);
width = 629;
},
{
layerId = "0F07E72C-8AE6-425A-A663-A4AAA3128035";
shapes = (
{
closed = 1;
nodes = (
(26,639,o),
(32,645,o),
(46,640,qs),
(88,624,o),
(129,618,qs),
(158,614,o),
(284,629,o),
(422,668,o),
(469,696,qs),
(509,720,o),
(555,709,o),
(579,676,qs),
(603,643,o),
(592,604,o),
(545,589,qs),
(514,579,o),
(415,526,o),
(324,432,o),
(284,374,qs),
(223,285,o),
(184,154,o),
(179,85,qs),
(177,59,ls),
(172,-6,o),
(144,0,qs),
(133,4,o),
(129,33,o),
(136,71,qs),
(148,136,o),
(244,360,o),
(420,573,o),
(485,622,qs),
(546,668,o),
(456,654,o),
(415,639,qs),
(316,602,o),
(158,549,o),
(123,563,q),
(99,577,o),
(70,595,o),
(39,626,qs)
);
}
);
width = 629;
}
);
note = seven;
unicode = 55;
},
{
glyphname = eight;
lastChange = "2024-05-22 21:35:28 +0000";
layers = (
{
layerId = m01;
shapes = (
{
closed = 1;
nodes = (
(165,637,o),
(201,640,o),
(324,688,cs),
(371,706,o),
(452,713,o),
(478,705,cs),
(506,697,o),
(525,690,o),
(541,652,cs),
(568,595,o),
(499,481,o),
(443,396,cs),
(421,365,o),
(383,322,o),
(325,368,cs),
(302,383,o),
(308,379,o),
(244,375,cs),
(234,374,o),
(222,374,o),
(227,358,cs),
(232,348,o),
(227,332,o),
(220,326,cs),
(192,313,o),
(182,327,o),
(172,334,cs),
(157,346,o),
(146,358,o),
(137,383,cs),
(122,434,o),
(72,591,o),
(79,595,cs),
(86,601,o),
(101,602,o),
(126,595,cs),
(188,577,o),
(185,560,o),
(211,422,cs),
(217,391,o),
(226,411,o),
(312,419,cs),
(374,424,o),
(373,407,o),
(386,436,cs),
(402,480,o),
(426,579,o),
(432,628,cs),
(440,673,o),
(435,670,o),
(416,663,cs),
(388,651,o),
(347,636,o),
(245,609,cs),
(179,593,o),
(129,608,o),
(135,613,cs)
);
},
{
closed = 1;
nodes = (
(75,308,o),
(159,310,o),
(163,284,cs),
(165,251,o),
(169,84,o),
(169,52,cs),
(169,-1,o),
(173,-9,o),
(148,8,cs),
(96,44,o),
(67,266,o),
(50,280,cs),
(13,305,o),
(14,311,o),
(29,310,cs)
);
},
{
closed = 1;
nodes = (
(402,356,ls),
(373,343,o),
(437,436,o),
(516,414,cs),
(530,409,o),
(575,365,o),
(570,339,cs),
(552,262,o),
(493,31,o),
(478,3,cs),
(472,-15,o),
(423,-22,o),
(405,8,cs),
(397,22,o),
(393,24,o),
(356,28,cs),
(308,33,o),
(213,33,o),
(179,31,c),
(211,44,o),
(247,58,o),
(310,70,cs),
(368,77,o),
(410,70,o),
(416,74,cs),
(428,84,o),
(438,116,o),
(442,130,cs),
(460,192,o),
(467,266,o),
(473,350,cs),
(475,372,o),
(470,388,o),
(460,381,cs)
);
}
);
width = 613;
},
{
layerId = "0F07E72C-8AE6-425A-A663-A4AAA3128035";
shapes = (
{
closed = 1;
nodes = (
(178,627,o),
(201,640,o),
(324,688,cs),
(371,706,o),
(452,713,o),
(478,705,cs),
(506,697,o),
(525,690,o),
(541,652,cs),
(568,595,o),
(499,481,o),
(443,396,cs),
(421,365,o),
(383,322,o),
(325,368,cs),
(302,383,o),
(308,379,o),
(244,375,cs),
(234,374,o),
(222,374,o),
(227,358,cs),
(232,348,o),
(227,332,o),
(220,326,cs),
(192,313,o),
(182,327,o),
(172,334,cs),
(157,346,o),
(146,358,o),
(137,383,cs),
(122,434,o),
(72,591,o),
(79,595,cs),
(86,601,o),
(105,601,o),
(127,586,cs),
(154,568,o),
(148,565,o),
(174,427,cs),
(180,396,o),
(224,392,o),
(310,400,cs),
(372,405,o),
(410,407,o),
(423,436,cs),
(439,480,o),
(499,599,o),
(505,648,cs),
(513,693,o),
(473,694,o),
(432,679,cs),
(361,653,o),
(347,646,o),
(245,619,cs),
(179,603,o),
(128,611,o),
(135,613,cs)
);
},
{
closed = 1;
nodes = (
(75,308,o),
(133,310,o),
(137,284,cs),
(139,251,o),
(154,84,o),
(159,52,cs),
(167,0,o),
(173,-9,o),
(148,8,cs),
(96,44,o),
(89,267,o),
(72,272,cs),
(32,284,o),
(14,311,o),
(29,310,cs)
);
},
{
closed = 1;
nodes = (
(402,356,ls),
(373,343,o),
(437,436,o),
(516,414,cs),
(530,409,o),
(575,365,o),
(570,339,cs),
(552,262,o),
(475,49,o),
(460,21,cs),
(454,3,o),
(423,-22,o),
(405,8,cs),
(397,22,o),
(393,24,o),
(356,28,cs),
(308,33,o),
(213,33,o),
(179,31,c),
(211,44,o),
(246,51,o),
(310,57,cs),
(342,60,o),
(415,53,o),
(421,57,cs),
(433,67,o),
(447,93,o),
(455,122,cs),
(472,185,o),
(499,270,o),
(505,354,cs),
(507,376,o),
(498,397,o),
(460,381,cs)
);
}
);
width = 613;
}
);
note = eight;
unicode = 56;
},
{
glyphname = nine;
lastChange = "2024-05-22 21:33:38 +0000";
layers = (
{
layerId = m01;
shapes = (
{
closed = 1;
nodes = (
(382,634,o),
(369,639,q),
(367,639,o),
(365,641,q),
(359,650,ls),
(332,686,o),
(297,703,qs),
(254,724,o),
(154,714,o),
(125,687,qs),
(110,673,o),
(70,603,o),
(62,570,qs),
(8,339,o),
(46,254,qs),
(57,229,o),
(88,206,o),
(113,205,qs),
(153,202,o),
(192,213,o),
(216,239,qs),
(227,251,o),
(271,295,qs),
(301,324,o),
(345,372,o),
(374,411,q),
(354,389,o),
(293,352,o),
(243,326,qs),
(193,299,l),
(182,292,ls),
(163,281,o),
(140,273,o),
(131,280,qs),
(112,294,o),
(107,492,o),
(157,649,o),
(213,636,qs),
(281,620,o),
(340,574,o),
(352,528,o),
(357,472,qs),
(364,393,o),
(322,250,o),
(281,191,qs),
(258,158,o),
(221,115,qs),
(209,103,o),
(202,90,o),
(202,75,qs),
(202,61,o),
(207,48,o),
(216,43,qs),
(229,37,o),
(244,24,qs),
(258,14,o),
(271,7,o),
(278,10,qs),
(293,15,o),
(300,21,o),
(304,29,qs),
(308,40,o),
(315,52,qs),
(342,100,o),
(367,159,o),
(396,292,o),
(413,421,q),
(416,435,o),
(418,449,qs),
(427,497,o),
(421,574,o),
(388,624,qs)
);
}
);
width = 455;
},
{
layerId = "0F07E72C-8AE6-425A-A663-A4AAA3128035";
shapes = (
{
closed = 1;
nodes = (
(382,634,o),
(369,639,q),
(367,639,o),
(365,641,q),
(359,650,ls),
(332,686,o),
(297,703,qs),
(254,724,o),
(154,714,o),
(125,687,qs),
(110,673,o),
(70,603,o),
(62,570,qs),
(17,368,o),
(55,283,qs),
(66,258,o),
(93,227,o),
(113,213,qs),
(129,202,o),
(177,213,o),
(216,239,qs),
(230,248,o),
(271,295,qs),
(301,324,o),
(345,372,o),
(374,411,q),
(354,389,o),
(286,364,o),
(243,326,qs),
(212,299,l),
(182,273,ls),
(167,260,o),
(134,239,o),
(125,246,qs),
(68,288,o),
(62,511,o),
(171,713,o),
(227,700,qs),
(308,681,o),
(361,594,o),
(391,528,o),
(396,472,qs),
(403,393,o),
(372,246,o),
(332,188,qs),
(294,132,o),
(247,100,qs),
(236,92,o),
(211,83,o),
(211,73,qs),
(211,59,o),
(217,46,o),
(220,43,qs),
(229,34,o),
(244,24,qs),
(259,14,o),
(271,7,o),
(278,10,qs),
(293,15,o),
(300,21,o),
(304,29,qs),
(309,57,o),
(315,69,qs),
(342,124,o),
(365,176,o),
(396,292,o),
(413,421,q),
(416,435,o),
(418,449,qs),
(427,497,o),
(421,574,o),
(388,624,qs)
);
}
);
width = 455;
}
);
note = nine;
unicode = 57;
},
{
glyphname = zero;
lastChange = "2024-05-22 21:38:21 +0000";
layers = (
{
layerId = m01;
shapes = (
{
closed = 1;
nodes = (
(196,647,o),
(140,662,o),
(113,647,qs),
(93,636,o),
(97,600,o),
(115,573,o),
(132,552,qs),
(154,526,o),
(168,440,o),
(168,362,qs),
(168,346,o),
(160,298,qs),
(151,245,o),
(145,169,o),
(154,123,qs),
(170,39,o),
(182,20,qs),
(189,10,o),
(204,4,qs),
(226,-5,o),
(155,16,o),
(95,57,o),
(77,92,qs),
(65,116,o),
(35,278,o),
(31,369,qs),
(23,527,o),
(98,689,o),
(203,644,qs)
);
},
{
closed = 1;
nodes = (
(232,638,o),
(265,636,o),
(308,649,o),
(342,667,qs),
(391,693,o),
(490,725,o),
(510,718,qs),
(540,708,o),
(572,664,o),
(578,611,qs),
(583,569,o),
(581,369,o),
(564,181,o),
(547,145,qs),
(518,81,o),
(429,-1,o),
(375,1,qs),
(334,3,o),
(295,9,o),
(266,27,o),
(244,49,qs),
(240,53,o),
(252,54,o),
(263,52,qs),
(313,45,o),
(412,57,o),
(451,97,qs),
(494,142,o),
(535,344,o),
(533,458,qs),
(533,479,ls),
(532,541,o),
(525,609,o),
(510,637,qs),
(503,652,o),
(462,676,o),
(414,678,o),
(396,663,qs),
(354,627,o),
(243,627,o),
(203,644,q)
);
},
{
closed = 1;
nodes = (
(256,430,o),
(321,444,o),
(359,430,qs),
(395,416,o),
(415,382,o),
(417,351,qs),
(418,327,o),
(399,294,o),
(378,277,qs),
(366,267,o),
(340,256,qs),
(324,249,o),
(305,237,o),
(296,225,qs),
(289,216,o),
(280,224,o),
(279,251,o),
(285,267,qs),
(295,292,ls),
(309,321,o),
(312,339,qs),
(313,344,o),
(290,358,o),
(276,365,qs),
(242,383,o),
(217,406,o),
(235,417,qs)
);
}
);
width = 612;
},
{
layerId = "0F07E72C-8AE6-425A-A663-A4AAA3128035";
shapes = (
{
closed = 1;
nodes = (
(196,647,o),
(140,662,o),
(113,647,qs),
(93,636,o),
(77,609,o),
(68,573,o),
(73,552,qs),
(84,505,o),
(98,440,o),
(98,362,qs),
(98,346,o),
(95,298,qs),
(91,245,o),
(91,129,o),
(98,113,qs),
(128,44,o),
(182,20,qs),
(195,14,o),
(204,4,qs),
(226,-5,o),
(155,16,o),
(95,57,o),
(77,92,qs),
(65,116,o),
(35,278,o),
(31,369,qs),
(23,527,o),
(98,689,o),
(203,644,qs)
);
},
{
closed = 1;
nodes = (
(232,638,o),
(265,636,o),
(308,649,o),
(342,667,qs),
(391,693,o),
(490,725,o),
(510,718,qs),
(540,708,o),
(572,664,o),
(578,611,qs),
(583,569,o),
(581,369,o),
(564,181,o),
(547,145,qs),
(518,81,o),
(429,-1,o),
(375,1,qs),
(334,3,o),
(295,9,o),
(266,27,o),
(244,49,qs),
(240,53,o),
(252,56,o),
(263,52,qs),
(321,31,o),
(427,44,o),
(466,84,qs),
(509,129,o),
(554,344,o),
(552,458,qs),
(552,479,ls),
(552,540,o),
(543,616,o),
(528,644,qs),
(521,659,o),
(492,688,o),
(441,691,o),
(407,676,qs),
(358,654,o),
(235,621,o),
(203,644,q)
);
},
{
closed = 1;
nodes = (
(256,430,o),
(299,436,o),
(337,420,qs),
(365,408,o),
(387,388,o),
(390,365,qs),
(392,350,o),
(376,314,o),
(362,305,qs),
(343,292,o),
(321,270,qs),
(310,259,o),
(305,246,o),
(296,234,qs),
(289,225,o),
(280,224,o),
(281,252,o),
(289,267,qs),
(302,292,ls),
(323,332,o),
(325,346,qs),
(326,351,o),
(320,377,o),
(306,384,qs),
(272,402,o),
(217,406,o),
(235,417,qs)
);
}
);
width = 612;
}
);
note = zero;
unicode = 48;
},
{
glyphname = period;
layers = (
{
layerId = m01;
shapes = (
{
closed = 1;
nodes = (
(70,33,o),
(87,53,qs),
(101,69,o),
(159,116,o),
(237,148,o),
(272,138,qs),
(353,116,o),
(368,70,qs),
(373,56,o),
(362,26,o),
(349,14,qs),
(341,5,o),
(231,-7,o),
(121,-3,o),
(107,8,qs),
(95,17,o),
(74,21,qs),
(60,25,o),
(60,29,q)
);
}
);
width = 430;
},
{
layerId = "0F07E72C-8AE6-425A-A663-A4AAA3128035";
shapes = (
{
closed = 1;
nodes = (
(70,33,o),
(87,53,qs),
(101,69,o),
(159,116,o),
(237,148,o),
(272,138,qs),
(353,116,o),
(368,70,qs),
(373,56,o),
(362,26,o),
(349,14,qs),
(341,5,o),
(231,-7,o),
(121,-3,o),
(107,8,qs),
(95,17,o),
(74,21,qs),
(60,25,o),
(60,29,q)
);
}
);
width = 430;
}
);
note = period;
unicode = 46;
},
{
glyphname = comma;
layers = (
{
layerId = m01;
shapes = (
{
closed = 1;
nodes = (
(173,117,o),
(190,73,qs),
(196,56,o),
(167,-13,o),
(105,-93,o),
(65,-128,qs),
(48,-145,o),
(30,-147,q),
(84,-150,ls),
(120,-151,o),
(144,-147,o),
(152,-143,q),
(155,-140,o),
(158,-139,qs),
(178,-131,ls),
(215,-117,o),
(268,-88,o),
(290,-63,qs),
(312,-36,o),
(329,11,o),
(331,40,qs),
(332,69,o),
(323,92,o),
(309,106,qs),
(289,124,o),
(213,149,o),
(189,139,qs),
(175,134,ls),
(166,130,o),
(155,129,o),
(145,132,qs),
(129,139,o),
(102,147,o),
(85,150,qs),
(83,150,o),
(88,148,q),
(110,143,o),
(131,132,q)
);
}
);
width = 391;
},
{
layerId = "0F07E72C-8AE6-425A-A663-A4AAA3128035";
shapes = (
{
closed = 1;
nodes = (
(173,117,o),
(190,73,qs),
(196,56,o),
(167,-13,o),
(105,-93,o),
(65,-128,qs),
(48,-145,o),
(30,-147,q),
(84,-150,ls),
(120,-151,o),
(144,-147,o),
(152,-143,q),
(155,-140,o),
(158,-139,qs),
(178,-131,ls),
(215,-117,o),
(268,-88,o),
(290,-63,qs),
(312,-36,o),
(329,11,o),
(331,40,qs),
(332,69,o),
(323,92,o),
(309,106,qs),
(289,124,o),
(213,149,o),
(189,139,qs),
(175,134,ls),
(166,130,o),
(155,129,o),
(145,132,qs),
(129,139,o),
(102,147,o),
(85,150,qs),
(83,150,o),
(88,148,q),
(110,143,o),
(131,132,q)
);
}
);
width = 391;
}
);
note = comma;
unicode = 44;
},
{
glyphname = hyphen;
layers = (
{
layerId = m01;
shapes = (
{
closed = 1;
nodes = (
(47,306,o),
(43,301,qs),
(38,293,o),
(43,291,qs),
(45,290,o),
(44,286,o),
(43,285,qs),
(42,283,o),
(42,277,o),
(46,274,qs),
(51,271,o),
(124,271,o),
(167,272,qs),
(210,273,o),
(253,274,qs),
(268,274,o),
(292,268,qs),
(312,263,o),
(351,258,o),
(388,258,qs),
(413,258,o),
(434,268,o),
(442,279,qs),
(456,297,o),
(481,318,o),
(509,338,qs),
(533,355,l),
(542,361,ls),
(552,367,o),
(555,372,o),
(547,373,qs),
(529,376,o),
(512,375,o),
(495,370,qs),
(483,366,l),
(478,364,ls),
(466,360,o),
(448,360,o),
(422,363,qs),
(406,365,o),
(374,368,o),
(358,369,qs),
(293,375,ls),
(268,377,o),
(217,377,qs),
(203,377,ls),
(187,377,o),
(153,362,o),
(114,342,qs)
);
}
